<svg xmlns="http://www.w3.org/2000/svg" xmlns:xlink="http://www.w3.org/1999/xlink" width="1428" zoomAndPan="magnify" viewBox="69 555 1355 495" height="521" preserveAspectRatio="xMidYMid meet" version="1.0"><defs><g/><clipPath id="1db28dae4c"><rect x="0" width="1411" y="0" height="976"/></clipPath></defs><g transform="matrix(1, 0, 0, 1, 28, 258)"><g clip-path="url(#1db28dae4c)"><g fill="#1b1b1b" fill-opacity="1"><g transform="translate(6.187758, 792.169698)"><g><path d="M 34.6875 -494.9375 L 138.75 -494.9375 L 138.75 -301.5 L 144.078125 -301.5 C 151.640625 -317.945312 163.976562 -331.84375 181.09375 -343.1875 C 198.21875 -354.53125 219.007812 -360.203125 243.46875 -360.203125 C 289.71875 -360.203125 321.734375 -345.632812 339.515625 -316.5 C 357.304688 -287.375 366.203125 -254.800781 366.203125 -218.78125 L 366.203125 0 L 262.140625 0 L 262.140625 -200.78125 C 262.140625 -223.90625 257.023438 -242.132812 246.796875 -255.46875 C 236.566406 -268.8125 221.226562 -275.484375 200.78125 -275.484375 C 180.320312 -275.484375 164.867188 -268.585938 154.421875 -254.796875 C 143.972656 -241.015625 138.75 -223.007812 138.75 -200.78125 L 138.75 0 L 34.6875 0 Z M 34.6875 -494.9375 "/></g></g></g><g fill="#1b1b1b" fill-opacity="1"><g transform="translate(352.374087, 792.169698)"><g><path d="M 166.09375 6 C 122.507812 6 88.820312 -10.5625 65.03125 -43.6875 C 41.238281 -76.820312 29.34375 -121.179688 29.34375 -176.765625 C 29.34375 -233.234375 41.238281 -277.921875 65.03125 -310.828125 C 88.820312 -343.742188 122.734375 -360.203125 166.765625 -360.203125 C 196.554688 -360.203125 219.566406 -353.640625 235.796875 -340.515625 C 252.023438 -327.398438 263.253906 -314.171875 269.484375 -300.828125 L 274.8125 -300.828125 L 274.8125 -352.859375 L 379.546875 -352.859375 L 379.546875 139.40625 L 274.8125 139.40625 L 274.8125 -56.703125 L 269.484375 -56.703125 C 261.921875 -41.578125 250.132812 -27.34375 234.125 -14 C 218.113281 -0.664062 195.4375 6 166.09375 6 Z M 204.78125 -76.046875 C 228.34375 -76.046875 245.90625 -86.050781 257.46875 -106.0625 C 269.03125 -126.070312 274.8125 -149.640625 274.8125 -176.765625 C 274.8125 -203.441406 269.140625 -226.5625 257.796875 -246.125 C 246.460938 -265.695312 228.789062 -275.484375 204.78125 -275.484375 C 180.769531 -275.484375 163.09375 -265.8125 151.75 -246.46875 C 140.40625 -227.125 134.734375 -203.890625 134.734375 -176.765625 C 134.734375 -149.640625 140.40625 -126.070312 151.75 -106.0625 C 163.09375 -86.050781 180.769531 -76.046875 204.78125 -76.046875 Z M 204.78125 -76.046875 "/></g></g></g><g fill="#1b1b1b" fill-opacity="1"><g transform="translate(712.568035, 792.169698)"><g><path d="M 112.0625 6 C 95.601562 6 82.035156 0.441406 71.359375 -10.671875 C 60.691406 -21.785156 55.359375 -35.347656 55.359375 -51.359375 C 55.359375 -67.367188 60.691406 -80.820312 71.359375 -91.71875 C 82.035156 -102.613281 95.601562 -108.0625 112.0625 -108.0625 C 128.507812 -108.0625 142.179688 -102.613281 153.078125 -91.71875 C 163.972656 -80.820312 169.421875 -67.367188 169.421875 -51.359375 C 169.421875 -35.347656 163.863281 -21.785156 152.75 -10.671875 C 141.632812 0.441406 128.070312 6 112.0625 6 Z M 112.0625 6 "/></g></g></g><g fill="#1b1b1b" fill-opacity="1"><g transform="translate(883.326615, 792.169698)"><g><path d="M 158.09375 6 C 114.507812 6 80.820312 -10.5625 57.03125 -43.6875 C 33.238281 -76.820312 21.34375 -121.179688 21.34375 -176.765625 C 21.34375 -232.796875 33.570312 -277.375 58.03125 -310.5 C 82.488281 -343.632812 116.285156 -360.203125 159.421875 -360.203125 C 189.210938 -360.203125 212.113281 -353.640625 228.125 -340.515625 C 244.132812 -327.398438 255.25 -314.171875 261.46875 -300.828125 L 266.8125 -300.828125 L 266.8125 -352.859375 L 371.53125 -352.859375 L 371.53125 0 L 266.8125 0 L 266.8125 -56.703125 L 261.46875 -56.703125 C 254.800781 -42.472656 243.351562 -28.460938 227.125 -14.671875 C 210.894531 -0.890625 187.882812 6 158.09375 6 Z M 197.4375 -77.375 C 221.007812 -77.375 238.578125 -87.265625 250.140625 -107.046875 C 261.703125 -126.835938 267.484375 -150.300781 267.484375 -177.4375 C 267.484375 -204.113281 261.703125 -227.34375 250.140625 -247.125 C 238.578125 -266.914062 221.007812 -276.8125 197.4375 -276.8125 C 172.976562 -276.8125 155.078125 -267.140625 143.734375 -247.796875 C 132.398438 -228.453125 126.734375 -205.21875 126.734375 -178.09375 C 126.734375 -150.519531 132.398438 -126.835938 143.734375 -107.046875 C 155.078125 -87.265625 172.976562 -77.375 197.4375 -77.375 Z M 197.4375 -77.375 "/></g></g></g><g fill="#1b1b1b" fill-opacity="1"><g transform="translate(1240.8524, 792.169698)"><g><path d="M 46.6875 -352.859375 L 150.078125 -352.859375 L 150.078125 0 L 46.6875 0 Z M 98.046875 -411.5625 C 82.046875 -411.5625 68.707031 -417.007812 58.03125 -427.90625 C 47.351562 -438.800781 42.015625 -452.03125 42.015625 -467.59375 C 42.015625 -483.601562 47.351562 -497.050781 58.03125 -507.9375 C 68.707031 -518.832031 82.046875 -524.28125 98.046875 -524.28125 C 114.054688 -524.28125 127.507812 -518.832031 138.40625 -507.9375 C 149.300781 -497.050781 154.75 -483.601562 154.75 -467.59375 C 154.75 -452.03125 149.300781 -438.800781 138.40625 -427.90625 C 127.507812 -417.007812 114.054688 -411.5625 98.046875 -411.5625 Z M 98.046875 -411.5625 "/></g></g></g></g></g></svg>