<svg xmlns="http://www.w3.org/2000/svg" xmlns:xlink="http://www.w3.org/1999/xlink" width="2000" zoomAndPan="magnify" viewBox="0 0 1500 1499.999933" height="2000" preserveAspectRatio="xMidYMid meet" version="1.0"><defs><g/><clipPath id="683ccb8732"><rect x="0" width="650" y="0" height="561"/></clipPath></defs><g transform="matrix(1, 0, 0, 1, 425, 469)"><g clip-path="url(#683ccb8732)"><g fill="#fefefe" fill-opacity="1"><g transform="translate(1.086283, 237.599125)"><g><path d="M 267.921875 0 L 308.09375 0 L 308.09375 -221.421875 L 267.921875 -221.421875 L 267.921875 -130.953125 L 55.984375 -130.953125 L 55.984375 -221.421875 L 15.8125 -221.421875 L 15.8125 0 L 55.984375 0 L 55.984375 -90.78125 L 267.921875 -90.78125 Z M 267.921875 0 "/></g></g></g><g fill="#fefefe" fill-opacity="1"><g transform="translate(324.990684, 237.599125)"><g><path d="M 278.359375 -36.0625 C 278.359375 -36.0625 279.832031 -36.0625 282.78125 -36.0625 L 308.09375 -36.0625 L 308.09375 -184.71875 L 282.78125 -184.71875 C 279.832031 -184.71875 277.300781 -185.769531 275.1875 -187.875 C 273.082031 -189.988281 272.03125 -192.523438 272.03125 -195.484375 L 272.03125 -221.421875 L 51.875 -221.421875 L 51.875 -195.796875 C 51.875 -192.847656 51.132812 -190.316406 49.65625 -188.203125 C 48.1875 -186.097656 45.34375 -185.046875 41.125 -185.046875 L 15.8125 -185.046875 L 15.8125 -36.0625 L 41.125 -36.0625 C 44.070312 -36.0625 46.597656 -35.003906 48.703125 -32.890625 C 50.816406 -30.785156 51.875 -28.257812 51.875 -25.3125 L 51.875 0 L 272.03125 0 L 272.03125 -25.3125 C 272.03125 -28.257812 273.082031 -30.785156 275.1875 -32.890625 C 277.300781 -35.003906 278.359375 -36.0625 278.359375 -36.0625 Z M 257.15625 -181.25 C 260.113281 -181.25 262.644531 -180.191406 264.75 -178.078125 C 266.863281 -175.972656 267.921875 -173.445312 267.921875 -170.5 L 267.921875 -67.6875 L 204.65625 -130.640625 L 176.5 -102.484375 L 240.71875 -40.171875 L 66.734375 -40.171875 C 63.785156 -40.171875 61.253906 -41.222656 59.140625 -43.328125 C 57.035156 -45.441406 55.984375 -47.972656 55.984375 -50.921875 L 55.984375 -170.5 C 55.984375 -173.445312 57.035156 -175.972656 59.140625 -178.078125 C 61.253906 -180.191406 63.785156 -181.25 66.734375 -181.25 Z M 257.15625 -181.25 "/></g></g></g><g fill="#fefefe" fill-opacity="1"><g transform="translate(1.086283, 481.125809)"><g><path d="M 51.875 -118.9375 L 51.875 -105.328125 C 51.875 -102.378906 50.816406 -99.847656 48.703125 -97.734375 C 46.597656 -95.628906 44.070312 -94.578125 41.125 -94.578125 L 15.8125 -94.578125 L 15.8125 0 L 55.984375 0 L 55.984375 -79.703125 C 55.984375 -82.660156 57.035156 -85.191406 59.140625 -87.296875 C 61.253906 -89.410156 63.785156 -90.46875 66.734375 -90.46875 C 69.691406 -90.46875 72.222656 -89.410156 74.328125 -87.296875 C 76.441406 -85.191406 77.5 -82.660156 77.5 -79.703125 L 77.5 -54.40625 L 246.40625 -54.40625 L 246.40625 -79.703125 C 246.40625 -82.660156 247.457031 -85.191406 249.5625 -87.296875 C 251.675781 -89.410156 254.207031 -90.46875 257.15625 -90.46875 C 260.113281 -90.46875 262.644531 -89.410156 264.75 -87.296875 C 266.863281 -85.191406 267.921875 -82.660156 267.921875 -79.703125 L 267.921875 0 L 308.09375 0 L 308.09375 -94.578125 L 282.78125 -94.578125 C 279.832031 -94.578125 277.300781 -95.628906 275.1875 -97.734375 C 273.082031 -99.847656 272.03125 -102.378906 272.03125 -105.328125 L 272.03125 -118.625 L 205.609375 -185.046875 L 192.640625 -185.046875 C 189.679688 -185.046875 187.144531 -186.097656 185.03125 -188.203125 C 182.925781 -190.316406 181.875 -192.847656 181.875 -195.796875 L 181.875 -221.421875 L 141.703125 -221.421875 L 141.703125 -195.796875 C 141.703125 -192.847656 140.703125 -190.316406 138.703125 -188.203125 C 136.703125 -186.097656 134.222656 -185.046875 131.265625 -185.046875 L 117.984375 -185.046875 Z M 146.140625 -156.265625 L 146.140625 -169.859375 C 146.347656 -172.804688 147.453125 -175.28125 149.453125 -177.28125 C 151.460938 -179.289062 153.941406 -180.296875 156.890625 -180.296875 L 166.703125 -180.296875 C 169.648438 -180.296875 172.175781 -179.289062 174.28125 -177.28125 C 176.394531 -175.28125 177.453125 -172.804688 177.453125 -169.859375 L 177.453125 -156.578125 L 221.109375 -112.921875 C 222.796875 -111.234375 223.847656 -109.332031 224.265625 -107.21875 C 224.679688 -105.113281 224.46875 -103.113281 223.625 -101.21875 C 222.789062 -99.320312 221.53125 -97.738281 219.84375 -96.46875 C 218.15625 -95.207031 216.046875 -94.578125 213.515625 -94.578125 L 110.078125 -94.578125 C 107.753906 -94.578125 105.75 -95.207031 104.0625 -96.46875 C 102.375 -97.738281 101.109375 -99.320312 100.265625 -101.21875 C 99.421875 -103.113281 99.15625 -105.113281 99.46875 -107.21875 C 99.789062 -109.332031 100.796875 -111.234375 102.484375 -112.921875 Z M 146.140625 -156.265625 "/></g></g></g><g fill="#fefefe" fill-opacity="1"><g transform="translate(324.990684, 481.125809)"><g><path d="M 168.59375 -35.75 C 168.59375 -35.75 170.171875 -34.21875 173.328125 -31.15625 C 176.492188 -28.09375 178.078125 -24.347656 178.078125 -19.921875 L 178.078125 0 L 308.09375 0 L 308.09375 -39.859375 L 198.015625 -39.859375 C 193.585938 -39.859375 189.84375 -41.4375 186.78125 -44.59375 C 183.726562 -47.757812 182.203125 -51.554688 182.203125 -55.984375 L 182.203125 -165.4375 C 182.203125 -169.863281 183.726562 -173.601562 186.78125 -176.65625 C 189.84375 -179.71875 193.585938 -181.25 198.015625 -181.25 L 308.09375 -181.25 L 308.09375 -221.421875 L 178.078125 -221.421875 L 178.078125 -201.484375 C 178.078125 -197.054688 176.492188 -193.257812 173.328125 -190.09375 C 170.171875 -186.9375 166.378906 -185.359375 161.953125 -185.359375 C 157.523438 -185.359375 153.78125 -186.9375 150.71875 -190.09375 C 147.664062 -193.257812 146.140625 -197.054688 146.140625 -201.484375 L 146.140625 -221.421875 L 15.8125 -221.421875 L 15.8125 -181.25 L 125.890625 -181.25 C 130.316406 -181.25 134.113281 -179.71875 137.28125 -176.65625 C 140.445312 -173.601562 142.03125 -169.863281 142.03125 -165.4375 L 142.03125 -55.984375 C 142.03125 -51.554688 140.445312 -47.757812 137.28125 -44.59375 C 134.113281 -41.4375 130.316406 -39.859375 125.890625 -39.859375 L 15.8125 -39.859375 L 15.8125 0 L 146.140625 0 L 146.140625 -19.921875 C 146.140625 -24.347656 147.664062 -28.09375 150.71875 -31.15625 C 153.78125 -34.21875 157.523438 -35.75 161.953125 -35.75 C 166.378906 -35.75 168.59375 -35.75 168.59375 -35.75 Z M 168.59375 -35.75 "/></g></g></g></g></g></svg>