<svg xmlns="http://www.w3.org/2000/svg" xmlns:xlink="http://www.w3.org/1999/xlink" width="2000" zoomAndPan="magnify" viewBox="0 0 1500 1499.999933" height="2000" preserveAspectRatio="xMidYMid meet" version="1.0"><defs><g/><clipPath id="722d717a60"><path d="M 0 0.601562 L 1428 0.601562 L 1428 571 L 0 571 Z M 0 0.601562 " clip-rule="nonzero"/></clipPath><clipPath id="418b7e164e"><rect x="0" width="1428" y="0" height="571"/></clipPath><clipPath id="284eac1232"><rect x="0" width="1428" y="0" height="581"/></clipPath></defs><g transform="matrix(1, 0, 0, 1, 36, 423)"><g clip-path="url(#284eac1232)"><g clip-path="url(#722d717a60)"><g transform="matrix(1, 0, 0, 1, 0, 0.000000000000113687)"><g clip-path="url(#418b7e164e)"><g fill="#fefefe" fill-opacity="1"><g transform="translate(0.289851, 456.366236)"><g><path d="M 70.03125 2.84375 C 55.226562 1.707031 44.03125 -0.472656 36.4375 -3.703125 C 28.84375 -6.929688 23.71875 -12.53125 21.0625 -20.5 C 18.40625 -28.46875 17.078125 -40.046875 17.078125 -55.234375 C 17.835938 -77.628906 18.023438 -100.210938 17.640625 -122.984375 C 17.265625 -145.753906 17.078125 -168.148438 17.078125 -190.171875 C 17.460938 -212.566406 17.75 -235.71875 17.9375 -259.625 C 18.125 -283.539062 18.410156 -306.890625 18.796875 -329.671875 C 19.171875 -347.128906 21.347656 -360.03125 25.328125 -368.375 C 29.316406 -376.726562 36.148438 -382.234375 45.828125 -384.890625 C 55.515625 -387.554688 68.707031 -388.695312 85.40625 -388.3125 C 93.375 -388.3125 102.195312 -388.40625 111.875 -388.59375 C 121.5625 -388.789062 130.671875 -388.035156 139.203125 -386.328125 C 147.742188 -384.617188 154.578125 -381.101562 159.703125 -375.78125 C 164.828125 -370.46875 166.820312 -362.117188 165.6875 -350.734375 C 167.582031 -326.816406 169.476562 -302.804688 171.375 -278.703125 C 173.28125 -254.597656 174.613281 -230.59375 175.375 -206.6875 C 175.75 -199.46875 178.398438 -193.484375 183.328125 -188.734375 C 188.265625 -183.992188 194.34375 -181.625 201.5625 -181.625 C 208.394531 -181.625 215.414062 -181.625 222.625 -181.625 C 229.832031 -181.625 236.851562 -181.4375 243.6875 -181.0625 C 251.28125 -181.0625 257.445312 -182.671875 262.1875 -185.890625 C 266.9375 -189.117188 269.503906 -193.203125 269.890625 -198.140625 C 269.890625 -201.179688 269.984375 -204.125 270.171875 -206.96875 C 270.359375 -209.8125 270.453125 -212.5625 270.453125 -215.21875 L 271.015625 -221.484375 L 272.15625 -307.46875 C 271.78125 -328.71875 271.78125 -345.226562 272.15625 -357 C 272.539062 -368.769531 274.628906 -376.929688 278.421875 -381.484375 C 282.222656 -386.035156 289.242188 -388.3125 299.484375 -388.3125 C 308.972656 -388.3125 315.519531 -386.601562 319.125 -383.1875 C 322.738281 -379.769531 324.925781 -374.171875 325.6875 -366.390625 C 326.445312 -358.609375 327.015625 -348.078125 327.390625 -334.796875 C 328.148438 -320.742188 328.71875 -303.941406 329.09375 -284.390625 C 329.476562 -264.847656 329.671875 -245.394531 329.671875 -226.03125 C 329.671875 -206.675781 329.289062 -189.789062 328.53125 -175.375 L 327.953125 -169.109375 C 327.953125 -166.066406 328.046875 -162.835938 328.234375 -159.421875 C 328.429688 -156.003906 328.53125 -152.398438 328.53125 -148.609375 C 329.289062 -115.585938 329.570312 -89.300781 329.375 -69.75 C 329.1875 -50.195312 328.238281 -35.582031 326.53125 -25.90625 C 324.820312 -16.226562 321.785156 -9.867188 317.421875 -6.828125 C 313.054688 -3.796875 307.078125 -2.28125 299.484375 -2.28125 C 290.378906 -2.28125 283.925781 -3.988281 280.125 -7.40625 C 276.332031 -10.820312 274.148438 -16.515625 273.578125 -24.484375 C 273.015625 -32.453125 272.351562 -42.890625 271.59375 -55.796875 L 269.890625 -97.9375 C 269.503906 -105.519531 267.507812 -111.875 263.90625 -117 C 260.300781 -122.125 255.84375 -124.5 250.53125 -124.125 C 243.695312 -123.738281 236.101562 -123.453125 227.75 -123.265625 C 219.394531 -123.078125 210.285156 -122.984375 200.421875 -122.984375 C 193.210938 -122.984375 187.234375 -120.988281 182.484375 -117 C 177.742188 -113.019531 175.179688 -107.992188 174.796875 -101.921875 C 175.179688 -75.722656 174.992188 -55.03125 174.234375 -39.84375 C 173.472656 -24.664062 170.148438 -13.660156 164.265625 -6.828125 C 158.378906 0.00390625 148.128906 3.894531 133.515625 4.84375 C 118.898438 5.789062 97.738281 5.125 70.03125 2.84375 Z M 70.03125 2.84375 "/></g></g></g><g fill="#fefefe" fill-opacity="1"><g transform="translate(347.034197, 456.366236)"><g><path d="M 177.078125 2.28125 C 160.367188 1.132812 143.285156 -1.332031 125.828125 -5.125 C 108.367188 -8.914062 91.953125 -15.082031 76.578125 -23.625 C 61.203125 -32.164062 48.578125 -44.023438 38.703125 -59.203125 C 28.835938 -74.390625 23.335938 -93.941406 22.203125 -117.859375 C 21.066406 -139.117188 19.738281 -158.570312 18.21875 -176.21875 C 16.695312 -193.875 16.890625 -213.140625 18.796875 -234.015625 C 25.617188 -299.679688 45.828125 -344.660156 79.421875 -368.953125 C 113.015625 -393.242188 162.457031 -401.023438 227.75 -392.296875 C 246.351562 -390.023438 263.53125 -383.476562 279.28125 -372.65625 C 295.03125 -361.832031 305.941406 -348.070312 312.015625 -331.375 C 317.328125 -316.945312 321.023438 -298.914062 323.109375 -277.28125 C 325.203125 -255.644531 326.34375 -233.25 326.53125 -210.09375 C 326.726562 -186.945312 326.632812 -165.691406 326.25 -146.328125 C 326.25 -136.460938 325.675781 -125.171875 324.53125 -112.453125 C 323.394531 -99.734375 321.304688 -87.109375 318.265625 -74.578125 C 315.234375 -62.054688 310.875 -50.671875 305.1875 -40.421875 C 304.800781 -40.046875 304.800781 -39.476562 305.1875 -38.71875 C 310.5 -27.332031 314.007812 -15.847656 315.71875 -4.265625 C 317.425781 7.304688 314.484375 15.179688 306.890625 19.359375 C 295.878906 25.804688 287.71875 26.847656 282.40625 22.484375 C 277.09375 18.117188 270.070312 8.914062 261.34375 -5.125 C 260.96875 -6.257812 259.828125 -6.445312 257.921875 -5.6875 C 244.640625 -1.894531 230.3125 0.566406 214.9375 1.703125 C 199.5625 2.847656 186.941406 3.039062 177.078125 2.28125 Z M 170.25 -200.421875 C 169.101562 -186.378906 168.816406 -172.425781 169.390625 -158.5625 C 169.960938 -144.707031 170.625 -130.570312 171.375 -116.15625 C 171.375 -106.28125 172.414062 -95.457031 174.5 -83.6875 C 176.59375 -71.925781 180.675781 -61.773438 186.75 -53.234375 C 192.820312 -44.691406 201.929688 -40.421875 214.078125 -40.421875 C 217.878906 -40.421875 221.390625 -40.515625 224.609375 -40.703125 C 227.835938 -40.898438 230.78125 -41.1875 233.4375 -41.5625 C 235.71875 -42.320312 236.289062 -43.648438 235.15625 -45.546875 C 229.457031 -54.273438 223.953125 -63.003906 218.640625 -71.734375 C 213.328125 -80.472656 207.0625 -90.914062 199.84375 -103.0625 C 197.570312 -107.613281 195.484375 -113.019531 193.578125 -119.28125 C 191.679688 -125.539062 191.394531 -131.707031 192.71875 -137.78125 C 194.050781 -143.863281 197.945312 -148.421875 204.40625 -151.453125 C 207.4375 -152.972656 211.609375 -153.734375 216.921875 -153.734375 C 222.242188 -153.734375 228.796875 -150.503906 236.578125 -144.046875 C 244.359375 -137.597656 253.375 -125.453125 263.625 -107.609375 C 265.132812 -105.710938 266.363281 -103.53125 267.3125 -101.0625 C 268.269531 -98.59375 269.316406 -96.222656 270.453125 -93.953125 C 271.210938 -92.429688 272.347656 -91.765625 273.859375 -91.953125 C 275.378906 -92.140625 276.332031 -92.992188 276.71875 -94.515625 C 282.03125 -116.148438 285.445312 -144.617188 286.96875 -179.921875 C 288.488281 -215.222656 284.3125 -255.078125 274.4375 -299.484375 C 271.019531 -314.671875 266.179688 -326.34375 259.921875 -334.5 C 253.660156 -342.664062 245.59375 -346.5625 235.71875 -346.1875 C 222.8125 -347.320312 212.179688 -345.328125 203.828125 -340.203125 C 195.484375 -335.078125 189.03125 -328.429688 184.46875 -320.265625 C 179.914062 -312.109375 176.882812 -304.046875 175.375 -296.078125 C 172.707031 -263.054688 171 -231.171875 170.25 -200.421875 Z M 170.25 -200.421875 "/></g></g></g><g fill="#fefefe" fill-opacity="1"><g transform="translate(690.931597, 456.366236)"><g><path d="M 45.546875 3.421875 C 31.878906 -1.140625 23.71875 -7.785156 21.0625 -16.515625 C 18.40625 -25.242188 17.078125 -35.300781 17.078125 -46.6875 C 17.835938 -61.875 18.691406 -73.734375 19.640625 -82.265625 C 20.585938 -90.804688 23.148438 -97.359375 27.328125 -101.921875 C 31.878906 -106.472656 38.234375 -109.695312 46.390625 -111.59375 C 54.554688 -113.488281 66.039062 -114.4375 80.84375 -114.4375 C 93.75 -114.4375 104.28125 -112.914062 112.4375 -109.875 C 120.601562 -106.84375 126.773438 -100.394531 130.953125 -90.53125 C 135.128906 -80.664062 137.785156 -65.671875 138.921875 -45.546875 C 139.304688 -39.859375 139.398438 -35.207031 139.203125 -31.59375 C 139.015625 -27.988281 138.539062 -24.671875 137.78125 -21.640625 C 135.882812 -13.285156 131.140625 -6.925781 123.546875 -2.5625 C 115.960938 1.800781 107.046875 4.644531 96.796875 5.96875 C 86.546875 7.300781 76.769531 7.679688 67.46875 7.109375 C 58.164062 6.546875 50.859375 5.316406 45.546875 3.421875 Z M 45.546875 3.421875 "/></g></g></g><g fill="#fefefe" fill-opacity="1"><g transform="translate(846.938062, 456.366236)"><g><path d="M 126.96875 0 C 124.6875 0 123.359375 -0.1875 122.984375 -0.5625 C 119.191406 -0.5625 115.207031 -0.5625 111.03125 -0.5625 C 106.851562 -0.5625 102.675781 -0.753906 98.5 -1.140625 C 86.726562 -1.140625 74.769531 -1.707031 62.625 -2.84375 C 44.03125 -4.363281 31.597656 -8.632812 25.328125 -15.65625 C 19.066406 -22.675781 16.316406 -36.4375 17.078125 -56.9375 L 17.078125 -57.5 C 18.972656 -71.925781 21.816406 -87.679688 25.609375 -104.765625 C 29.410156 -121.847656 34.347656 -140.445312 40.421875 -160.5625 C 43.835938 -171.1875 47.0625 -181.625 50.09375 -191.875 C 53.132812 -202.125 56.363281 -212.1875 59.78125 -222.0625 C 66.238281 -241.414062 72.597656 -260.863281 78.859375 -280.40625 C 85.117188 -299.957031 90.71875 -319.796875 95.65625 -339.921875 C 100.59375 -359.660156 108.847656 -373.609375 120.421875 -381.765625 C 131.992188 -389.921875 148.410156 -393.429688 169.671875 -392.296875 C 170.429688 -391.921875 174.226562 -391.539062 181.0625 -391.15625 C 187.894531 -390.78125 195.484375 -390.6875 203.828125 -390.875 C 212.179688 -391.0625 218.632812 -391.726562 223.1875 -392.875 C 242.550781 -397.425781 257.164062 -390.019531 267.03125 -370.65625 C 270.070312 -364.582031 273.109375 -357.84375 276.140625 -350.4375 C 279.179688 -343.039062 282.03125 -336.117188 284.6875 -329.671875 C 295.695312 -295.128906 305.660156 -260.679688 314.578125 -226.328125 C 323.492188 -191.972656 331.941406 -158.09375 339.921875 -124.6875 C 341.816406 -120.132812 343.617188 -115.203125 345.328125 -109.890625 C 347.035156 -104.578125 348.648438 -99.640625 350.171875 -95.078125 C 353.960938 -82.179688 357.28125 -71.835938 360.125 -64.046875 C 362.976562 -56.265625 364.59375 -51.617188 364.96875 -50.109375 C 366.863281 -43.273438 368.757812 -36.820312 370.65625 -30.75 C 372.5625 -24.675781 373.035156 -19.078125 372.078125 -13.953125 C 371.128906 -8.828125 366.863281 -4.175781 359.28125 0 C 353.582031 2.65625 348.265625 3.128906 343.328125 1.421875 C 338.398438 -0.285156 334.226562 -2.46875 330.8125 -5.125 C 325.875 -8.539062 321.789062 -12.8125 318.5625 -17.9375 C 315.332031 -23.0625 312.203125 -29.226562 309.171875 -36.4375 C 308.785156 -38.332031 307.738281 -42.695312 306.03125 -49.53125 C 304.332031 -56.363281 302.34375 -63.859375 300.0625 -72.015625 C 297.78125 -80.179688 295.691406 -87.679688 293.796875 -94.515625 C 291.898438 -101.347656 290.570312 -105.90625 289.8125 -108.1875 C 286.019531 -119.945312 279.472656 -128.195312 270.171875 -132.9375 C 260.867188 -137.6875 247.109375 -140.0625 228.890625 -140.0625 C 217.503906 -140.0625 209.722656 -137.878906 205.546875 -133.515625 C 201.367188 -129.148438 197.191406 -119.945312 193.015625 -105.90625 C 192.253906 -101.351562 191.207031 -96.703125 189.875 -91.953125 C 188.550781 -87.210938 187.320312 -82.753906 186.1875 -78.578125 C 184.664062 -71.742188 182.859375 -64.910156 180.765625 -58.078125 C 178.679688 -51.242188 176.691406 -44.410156 174.796875 -37.578125 C 166.828125 -12.523438 150.882812 0 126.96875 0 Z M 223.1875 -216.9375 C 219.78125 -205.539062 221.679688 -197.378906 228.890625 -192.453125 C 235.722656 -185.617188 244.644531 -184.859375 255.65625 -190.171875 C 264.382812 -193.960938 267.609375 -201.554688 265.328125 -212.953125 C 264.566406 -218.640625 263.425781 -225.941406 261.90625 -234.859375 C 260.394531 -243.785156 258.5 -251.945312 256.21875 -259.34375 C 253.9375 -266.75 251.375 -271.585938 248.53125 -273.859375 C 245.6875 -276.140625 242.742188 -273.675781 239.703125 -266.46875 C 237.046875 -257.351562 234.390625 -248.710938 231.734375 -240.546875 C 229.078125 -232.390625 226.226562 -224.519531 223.1875 -216.9375 Z M 223.1875 -216.9375 "/></g></g></g><g fill="#fefefe" fill-opacity="1"><g transform="translate(1236.384819, 456.366236)"><g><path d="M 71.734375 2.84375 C 57.691406 1.707031 46.78125 -0.28125 39 -3.125 C 31.21875 -5.976562 25.710938 -10.820312 22.484375 -17.65625 C 19.265625 -24.488281 17.460938 -34.164062 17.078125 -46.6875 L 17.078125 -55.234375 C 17.078125 -55.992188 17.078125 -56.847656 17.078125 -57.796875 C 17.078125 -58.742188 17.078125 -59.597656 17.078125 -60.359375 C 17.460938 -82.753906 18.03125 -105.90625 18.78125 -129.8125 C 19.539062 -153.726562 20.113281 -177.070312 20.5 -199.84375 C 20.875 -217.3125 23.054688 -230.503906 27.046875 -239.421875 C 31.035156 -248.335938 37.867188 -254.410156 47.546875 -257.640625 C 57.222656 -260.867188 70.410156 -262.289062 87.109375 -261.90625 C 95.085938 -261.90625 104.101562 -261.8125 114.15625 -261.625 C 124.21875 -261.4375 133.800781 -260.296875 142.90625 -258.203125 C 152.019531 -256.117188 159.328125 -252.226562 164.828125 -246.53125 C 170.335938 -240.84375 172.519531 -232.304688 171.375 -220.921875 C 171.757812 -218.265625 172.046875 -211.144531 172.234375 -199.5625 C 172.421875 -187.988281 172.703125 -174.226562 173.078125 -158.28125 C 173.460938 -142.34375 173.75 -126.398438 173.9375 -110.453125 C 174.132812 -94.515625 174.234375 -80.660156 174.234375 -68.890625 C 174.234375 -57.128906 174.234375 -49.726562 174.234375 -46.6875 C 173.472656 -29.226562 170.625 -16.507812 165.6875 -8.53125 C 160.75 -0.5625 151.066406 3.894531 136.640625 4.84375 C 122.222656 5.789062 100.585938 5.125 71.734375 2.84375 Z M 34.734375 -341.0625 C 34.734375 -357.375 42.320312 -372.742188 57.5 -387.171875 C 63.957031 -393.628906 71.359375 -398.566406 79.703125 -401.984375 C 88.054688 -405.398438 95.84375 -407.109375 103.0625 -407.109375 C 119.382812 -405.960938 133.238281 -399.125 144.625 -386.59375 C 156.007812 -374.070312 161.703125 -358.894531 161.703125 -341.0625 C 162.078125 -330.8125 160.460938 -321.695312 156.859375 -313.71875 C 153.253906 -305.75 148.414062 -298.539062 142.34375 -292.09375 C 129.4375 -279.5625 114.726562 -274.148438 98.21875 -275.859375 C 81.707031 -277.566406 67.1875 -284.875 54.65625 -297.78125 C 41.375 -311.070312 34.734375 -325.5 34.734375 -341.0625 Z M 34.734375 -341.0625 "/></g></g></g></g></g></g><g fill="#fefefe" fill-opacity="1"><g transform="translate(36.079352, 564.65801)"><g><path d="M 10.6875 -43.125 C 10.6875 -30.488281 10.890625 -23.71875 11.296875 -22.8125 C 12.253906 -22.15625 15.128906 -22.53125 19.921875 -23.9375 C 24.722656 -25.351562 27.453125 -26.617188 28.109375 -27.734375 C 28.765625 -28.691406 28.03125 -30.738281 25.90625 -33.875 C 23.789062 -37.007812 21.722656 -39.179688 19.703125 -40.390625 C 17.679688 -41.597656 14.675781 -42.507812 10.6875 -43.125 Z M 6.140625 -50.78125 L 12.578125 -50.78125 C 16.210938 -50.570312 19.34375 -49.859375 21.96875 -48.640625 C 24.601562 -47.429688 27.285156 -45.257812 30.015625 -42.125 C 32.742188 -39 34.660156 -35.769531 35.765625 -32.4375 C 36.773438 -29.15625 36.722656 -26.375 35.609375 -24.09375 C 34.503906 -21.820312 32.03125 -19.800781 28.1875 -18.03125 C 24.351562 -16.269531 20.132812 -15.132812 15.53125 -14.625 L 11.140625 -14.09375 L 11.515625 -8.03125 C 11.722656 -5.40625 11.773438 -3.632812 11.671875 -2.71875 C 11.566406 -1.8125 11.1875 -1.03125 10.53125 -0.375 C 9.46875 0.882812 8.332031 1.410156 7.125 1.203125 C 5.914062 1.003906 4.878906 0.0195312 4.015625 -1.75 C 3.460938 -2.757812 2.984375 -10.4375 2.578125 -24.78125 C 2.171875 -39.125 2.222656 -46.929688 2.734375 -48.203125 C 2.828125 -48.503906 2.972656 -48.753906 3.171875 -48.953125 C 3.378906 -49.160156 3.582031 -49.390625 3.78125 -49.640625 C 3.988281 -49.890625 4.242188 -50.0625 4.546875 -50.15625 C 4.847656 -50.257812 5.078125 -50.363281 5.234375 -50.46875 C 5.429688 -50.675781 5.734375 -50.78125 6.140625 -50.78125 Z M 6.140625 -50.78125 "/></g></g></g><g fill="#fefefe" fill-opacity="1"><g transform="translate(86.086806, 564.65801)"><g><path d="M 13.1875 -38.1875 C 12.582031 -37.988281 12.28125 -37.484375 12.28125 -36.671875 C 12.28125 -35.867188 11.953125 -32.507812 11.296875 -26.59375 C 17.753906 -27.050781 22.144531 -27.429688 24.46875 -27.734375 C 26.800781 -28.035156 28.269531 -28.082031 28.875 -27.875 C 29.476562 -27.675781 30.285156 -27.125 31.296875 -26.21875 C 32.203125 -25.3125 32.65625 -24.550781 32.65625 -23.9375 C 32.65625 -23.332031 32.226562 -22.550781 31.375 -21.59375 C 30.46875 -20.738281 29.40625 -20.160156 28.1875 -19.859375 C 26.976562 -19.554688 24.40625 -19.300781 20.46875 -19.09375 L 11.515625 -18.5625 C 11.367188 -15.476562 11.597656 -12.671875 12.203125 -10.140625 C 12.804688 -7.617188 13.84375 -6.160156 15.3125 -5.765625 C 16.925781 -5.359375 25.585938 -4.875 41.296875 -4.3125 L 42.28125 -2.28125 C 42.738281 -1.363281 42.96875 -0.703125 42.96875 -0.296875 C 42.96875 0.0976562 42.738281 0.625 42.28125 1.28125 C 41.832031 1.945312 41.503906 2.378906 41.296875 2.578125 C 41.097656 2.773438 40.519531 2.945312 39.5625 3.09375 C 38.601562 3.25 37.488281 3.328125 36.21875 3.328125 C 34.957031 3.328125 32.785156 3.351562 29.703125 3.40625 C 21.367188 3.40625 15.535156 2.847656 12.203125 1.734375 C 8.867188 0.628906 6.492188 -1.515625 5.078125 -4.703125 C 4.367188 -6.460938 3.660156 -10.117188 2.953125 -15.671875 C 2.242188 -21.234375 2.09375 -24.367188 2.5 -25.078125 C 2.90625 -25.835938 3.257812 -27.984375 3.5625 -31.515625 C 3.863281 -35.054688 4.0625 -37.429688 4.15625 -38.640625 C 4.257812 -39.859375 4.5625 -41 5.0625 -42.0625 C 5.570312 -43.125 6.101562 -43.90625 6.65625 -44.40625 C 7.21875 -44.914062 8.15625 -45.367188 9.46875 -45.765625 C 10.832031 -46.171875 12.222656 -46.472656 13.640625 -46.671875 C 15.054688 -46.878906 17.984375 -47.1875 22.421875 -47.59375 C 26.867188 -48 29.726562 -48.398438 31 -48.796875 C 34.28125 -49.804688 36.65625 -49.65625 38.125 -48.34375 C 38.925781 -47.632812 39.328125 -46.722656 39.328125 -45.609375 C 39.328125 -44.503906 38.925781 -43.546875 38.125 -42.734375 C 37.363281 -41.929688 35.210938 -41.175781 31.671875 -40.46875 C 28.140625 -39.757812 24.328125 -39.253906 20.234375 -38.953125 C 16.140625 -38.648438 13.789062 -38.394531 13.1875 -38.1875 Z M 13.1875 -38.1875 "/></g></g></g><g fill="#fefefe" fill-opacity="1"><g transform="translate(142.610131, 564.65801)"><g><path d="M 27.28125 -36 C 25.257812 -37.0625 23.945312 -37.613281 23.34375 -37.65625 C 22.738281 -37.707031 21.648438 -37.378906 20.078125 -36.671875 C 16.898438 -35.359375 14.65625 -33.742188 13.34375 -31.828125 C 12.03125 -29.910156 11.171875 -27.179688 10.765625 -23.640625 C 10.359375 -20.109375 11.210938 -17.179688 13.328125 -14.859375 C 15.453125 -12.535156 18.335938 -11.320312 21.984375 -11.21875 C 24.097656 -11.21875 25.960938 -11.617188 27.578125 -12.421875 C 29.203125 -13.234375 30.820312 -14.5 32.4375 -16.21875 C 34.050781 -18.039062 35.132812 -19.859375 35.6875 -21.671875 C 36.25 -23.492188 36.203125 -25.085938 35.546875 -26.453125 C 33.421875 -31.097656 30.664062 -34.28125 27.28125 -36 Z M 2.28125 -22.203125 C 2.28125 -27.765625 3.796875 -32.585938 6.828125 -36.671875 C 9.859375 -40.765625 13.972656 -43.617188 19.171875 -45.234375 C 20.941406 -45.796875 22.632812 -45.945312 24.25 -45.6875 C 25.863281 -45.4375 27.859375 -44.757812 30.234375 -43.65625 C 34.222656 -41.832031 37.53125 -39 40.15625 -35.15625 C 42.789062 -31.320312 44.132812 -27.4375 44.1875 -23.5 C 44.132812 -19.550781 42.539062 -15.609375 39.40625 -11.671875 C 36.269531 -7.734375 32.53125 -5.054688 28.1875 -3.640625 C 23.84375 -2.328125 19.648438 -2.328125 15.609375 -3.640625 C 11.566406 -4.953125 8.332031 -7.273438 5.90625 -10.609375 C 3.488281 -13.941406 2.28125 -17.804688 2.28125 -22.203125 Z M 2.28125 -22.203125 "/></g></g></g><g fill="#fefefe" fill-opacity="1"><g transform="translate(200.345716, 564.65801)"><g><path d="M 10.6875 -43.125 C 10.6875 -30.488281 10.890625 -23.71875 11.296875 -22.8125 C 12.253906 -22.15625 15.128906 -22.53125 19.921875 -23.9375 C 24.722656 -25.351562 27.453125 -26.617188 28.109375 -27.734375 C 28.765625 -28.691406 28.03125 -30.738281 25.90625 -33.875 C 23.789062 -37.007812 21.722656 -39.179688 19.703125 -40.390625 C 17.679688 -41.597656 14.675781 -42.507812 10.6875 -43.125 Z M 6.140625 -50.78125 L 12.578125 -50.78125 C 16.210938 -50.570312 19.34375 -49.859375 21.96875 -48.640625 C 24.601562 -47.429688 27.285156 -45.257812 30.015625 -42.125 C 32.742188 -39 34.660156 -35.769531 35.765625 -32.4375 C 36.773438 -29.15625 36.722656 -26.375 35.609375 -24.09375 C 34.503906 -21.820312 32.03125 -19.800781 28.1875 -18.03125 C 24.351562 -16.269531 20.132812 -15.132812 15.53125 -14.625 L 11.140625 -14.09375 L 11.515625 -8.03125 C 11.722656 -5.40625 11.773438 -3.632812 11.671875 -2.71875 C 11.566406 -1.8125 11.1875 -1.03125 10.53125 -0.375 C 9.46875 0.882812 8.332031 1.410156 7.125 1.203125 C 5.914062 1.003906 4.878906 0.0195312 4.015625 -1.75 C 3.460938 -2.757812 2.984375 -10.4375 2.578125 -24.78125 C 2.171875 -39.125 2.222656 -46.929688 2.734375 -48.203125 C 2.828125 -48.503906 2.972656 -48.753906 3.171875 -48.953125 C 3.378906 -49.160156 3.582031 -49.390625 3.78125 -49.640625 C 3.988281 -49.890625 4.242188 -50.0625 4.546875 -50.15625 C 4.847656 -50.257812 5.078125 -50.363281 5.234375 -50.46875 C 5.429688 -50.675781 5.734375 -50.78125 6.140625 -50.78125 Z M 6.140625 -50.78125 "/></g></g></g><g fill="#fefefe" fill-opacity="1"><g transform="translate(250.35317, 564.65801)"><g><path d="M 4.015625 -46.15625 C 5.078125 -46.90625 5.910156 -47.28125 6.515625 -47.28125 C 7.117188 -47.28125 7.847656 -46.976562 8.703125 -46.375 C 9.566406 -45.769531 10.097656 -45.0625 10.296875 -44.25 C 10.503906 -43.445312 10.632812 -41.300781 10.6875 -37.8125 C 10.738281 -34.332031 10.960938 -29.660156 11.359375 -23.796875 C 11.765625 -17.929688 12.273438 -13.8125 12.890625 -11.4375 C 25.515625 -11.082031 33.265625 -10.65625 36.140625 -10.15625 C 37.910156 -9.75 38.894531 -8.585938 39.09375 -6.671875 C 39.300781 -4.753906 38.570312 -3.441406 36.90625 -2.734375 C 35.738281 -2.222656 31.164062 -2.171875 23.1875 -2.578125 C 15.207031 -2.984375 10.5625 -3.488281 9.25 -4.09375 C 6.925781 -5.25 5.359375 -7.59375 4.546875 -11.125 C 3.734375 -14.664062 3.128906 -21.617188 2.734375 -31.984375 L 2.28125 -44.9375 Z M 4.015625 -46.15625 "/></g></g></g><g fill="#fefefe" fill-opacity="1"><g transform="translate(303.012412, 564.65801)"><g><path d="M 13.1875 -38.1875 C 12.582031 -37.988281 12.28125 -37.484375 12.28125 -36.671875 C 12.28125 -35.867188 11.953125 -32.507812 11.296875 -26.59375 C 17.753906 -27.050781 22.144531 -27.429688 24.46875 -27.734375 C 26.800781 -28.035156 28.269531 -28.082031 28.875 -27.875 C 29.476562 -27.675781 30.285156 -27.125 31.296875 -26.21875 C 32.203125 -25.3125 32.65625 -24.550781 32.65625 -23.9375 C 32.65625 -23.332031 32.226562 -22.550781 31.375 -21.59375 C 30.46875 -20.738281 29.40625 -20.160156 28.1875 -19.859375 C 26.976562 -19.554688 24.40625 -19.300781 20.46875 -19.09375 L 11.515625 -18.5625 C 11.367188 -15.476562 11.597656 -12.671875 12.203125 -10.140625 C 12.804688 -7.617188 13.84375 -6.160156 15.3125 -5.765625 C 16.925781 -5.359375 25.585938 -4.875 41.296875 -4.3125 L 42.28125 -2.28125 C 42.738281 -1.363281 42.96875 -0.703125 42.96875 -0.296875 C 42.96875 0.0976562 42.738281 0.625 42.28125 1.28125 C 41.832031 1.945312 41.503906 2.378906 41.296875 2.578125 C 41.097656 2.773438 40.519531 2.945312 39.5625 3.09375 C 38.601562 3.25 37.488281 3.328125 36.21875 3.328125 C 34.957031 3.328125 32.785156 3.351562 29.703125 3.40625 C 21.367188 3.40625 15.535156 2.847656 12.203125 1.734375 C 8.867188 0.628906 6.492188 -1.515625 5.078125 -4.703125 C 4.367188 -6.460938 3.660156 -10.117188 2.953125 -15.671875 C 2.242188 -21.234375 2.09375 -24.367188 2.5 -25.078125 C 2.90625 -25.835938 3.257812 -27.984375 3.5625 -31.515625 C 3.863281 -35.054688 4.0625 -37.429688 4.15625 -38.640625 C 4.257812 -39.859375 4.5625 -41 5.0625 -42.0625 C 5.570312 -43.125 6.101562 -43.90625 6.65625 -44.40625 C 7.21875 -44.914062 8.15625 -45.367188 9.46875 -45.765625 C 10.832031 -46.171875 12.222656 -46.472656 13.640625 -46.671875 C 15.054688 -46.878906 17.984375 -47.1875 22.421875 -47.59375 C 26.867188 -48 29.726562 -48.398438 31 -48.796875 C 34.28125 -49.804688 36.65625 -49.65625 38.125 -48.34375 C 38.925781 -47.632812 39.328125 -46.722656 39.328125 -45.609375 C 39.328125 -44.503906 38.925781 -43.546875 38.125 -42.734375 C 37.363281 -41.929688 35.210938 -41.175781 31.671875 -40.46875 C 28.140625 -39.757812 24.328125 -39.253906 20.234375 -38.953125 C 16.140625 -38.648438 13.789062 -38.394531 13.1875 -38.1875 Z M 13.1875 -38.1875 "/></g></g></g><g fill="#fefefe" fill-opacity="1"><g transform="translate(359.535738, 564.65801)"><g/></g></g><g fill="#fefefe" fill-opacity="1"><g transform="translate(399.011717, 564.65801)"><g><path d="M 10.6875 -43.125 C 10.6875 -30.488281 10.890625 -23.71875 11.296875 -22.8125 C 12.253906 -22.15625 15.128906 -22.53125 19.921875 -23.9375 C 24.722656 -25.351562 27.453125 -26.617188 28.109375 -27.734375 C 28.765625 -28.691406 28.03125 -30.738281 25.90625 -33.875 C 23.789062 -37.007812 21.722656 -39.179688 19.703125 -40.390625 C 17.679688 -41.597656 14.675781 -42.507812 10.6875 -43.125 Z M 6.140625 -50.78125 L 12.578125 -50.78125 C 16.210938 -50.570312 19.34375 -49.859375 21.96875 -48.640625 C 24.601562 -47.429688 27.285156 -45.257812 30.015625 -42.125 C 32.742188 -39 34.660156 -35.769531 35.765625 -32.4375 C 36.773438 -29.15625 36.722656 -26.375 35.609375 -24.09375 C 34.503906 -21.820312 32.03125 -19.800781 28.1875 -18.03125 C 24.351562 -16.269531 20.132812 -15.132812 15.53125 -14.625 L 11.140625 -14.09375 L 11.515625 -8.03125 C 11.722656 -5.40625 11.773438 -3.632812 11.671875 -2.71875 C 11.566406 -1.8125 11.1875 -1.03125 10.53125 -0.375 C 9.46875 0.882812 8.332031 1.410156 7.125 1.203125 C 5.914062 1.003906 4.878906 0.0195312 4.015625 -1.75 C 3.460938 -2.757812 2.984375 -10.4375 2.578125 -24.78125 C 2.171875 -39.125 2.222656 -46.929688 2.734375 -48.203125 C 2.828125 -48.503906 2.972656 -48.753906 3.171875 -48.953125 C 3.378906 -49.160156 3.582031 -49.390625 3.78125 -49.640625 C 3.988281 -49.890625 4.242188 -50.0625 4.546875 -50.15625 C 4.847656 -50.257812 5.078125 -50.363281 5.234375 -50.46875 C 5.429688 -50.675781 5.734375 -50.78125 6.140625 -50.78125 Z M 6.140625 -50.78125 "/></g></g></g><g fill="#fefefe" fill-opacity="1"><g transform="translate(449.019183, 564.65801)"><g><path d="M 23.03125 -37.578125 C 20.101562 -39.097656 17.804688 -39.859375 16.140625 -39.859375 C 14.472656 -39.859375 12.601562 -39.351562 10.53125 -38.34375 C 10.9375 -30.207031 11.34375 -25.710938 11.75 -24.859375 C 12.101562 -24.453125 13.992188 -24.648438 17.421875 -25.453125 C 20.859375 -26.265625 23.585938 -27.226562 25.609375 -28.34375 C 27.628906 -29.457031 28.890625 -30.441406 29.390625 -31.296875 C 29.898438 -32.160156 29.703125 -33.046875 28.796875 -33.953125 C 27.890625 -34.859375 25.96875 -36.066406 23.03125 -37.578125 Z M 34.328125 4.921875 C 32.859375 4.921875 31.644531 4.289062 30.6875 3.03125 C 30.03125 2.21875 27.148438 -0.535156 22.046875 -5.234375 C 16.953125 -9.929688 14 -12.53125 13.1875 -13.03125 C 12.882812 -13.238281 12.78125 -11.164062 12.875 -6.8125 C 12.976562 -2.46875 12.953125 0.101562 12.796875 0.90625 C 12.648438 1.71875 12.148438 2.398438 11.296875 2.953125 C 10.128906 3.816406 8.9375 3.992188 7.71875 3.484375 C 6.507812 2.984375 5.753906 2.148438 5.453125 0.984375 C 5.148438 -0.179688 4.847656 -3.289062 4.546875 -8.34375 C 4.242188 -13.394531 3.710938 -16.472656 2.953125 -17.578125 C 2.242188 -18.691406 2.09375 -19.726562 2.5 -20.6875 C 2.90625 -21.644531 2.929688 -25.507812 2.578125 -32.28125 C 2.222656 -39.050781 2.144531 -42.789062 2.34375 -43.5 C 2.601562 -44.8125 3.210938 -45.820312 4.171875 -46.53125 C 5.128906 -47.238281 6.210938 -47.441406 7.421875 -47.140625 C 8.640625 -46.835938 9.800781 -46.882812 10.90625 -47.28125 C 13.132812 -48.195312 15.8125 -48.347656 18.9375 -47.734375 C 22.070312 -47.128906 25.554688 -45.71875 29.390625 -43.5 C 33.234375 -41.28125 35.835938 -38.957031 37.203125 -36.53125 C 38.566406 -34.101562 38.566406 -31.398438 37.203125 -28.421875 C 36.242188 -26.347656 34.804688 -24.550781 32.890625 -23.03125 C 30.972656 -21.519531 28.171875 -20.109375 24.484375 -18.796875 L 20.921875 -17.4375 C 30.671875 -9 36.273438 -3.59375 37.734375 -1.21875 C 38.347656 -0.101562 38.65625 0.703125 38.65625 1.203125 C 38.65625 1.710938 38.300781 2.472656 37.59375 3.484375 C 36.882812 4.492188 35.796875 4.972656 34.328125 4.921875 Z M 34.328125 4.921875 "/></g></g></g><g fill="#fefefe" fill-opacity="1"><g transform="translate(501.22384, 564.65801)"><g><path d="M 27.28125 -36 C 25.257812 -37.0625 23.945312 -37.613281 23.34375 -37.65625 C 22.738281 -37.707031 21.648438 -37.378906 20.078125 -36.671875 C 16.898438 -35.359375 14.65625 -33.742188 13.34375 -31.828125 C 12.03125 -29.910156 11.171875 -27.179688 10.765625 -23.640625 C 10.359375 -20.109375 11.210938 -17.179688 13.328125 -14.859375 C 15.453125 -12.535156 18.335938 -11.320312 21.984375 -11.21875 C 24.097656 -11.21875 25.960938 -11.617188 27.578125 -12.421875 C 29.203125 -13.234375 30.820312 -14.5 32.4375 -16.21875 C 34.050781 -18.039062 35.132812 -19.859375 35.6875 -21.671875 C 36.25 -23.492188 36.203125 -25.085938 35.546875 -26.453125 C 33.421875 -31.097656 30.664062 -34.28125 27.28125 -36 Z M 2.28125 -22.203125 C 2.28125 -27.765625 3.796875 -32.585938 6.828125 -36.671875 C 9.859375 -40.765625 13.972656 -43.617188 19.171875 -45.234375 C 20.941406 -45.796875 22.632812 -45.945312 24.25 -45.6875 C 25.863281 -45.4375 27.859375 -44.757812 30.234375 -43.65625 C 34.222656 -41.832031 37.53125 -39 40.15625 -35.15625 C 42.789062 -31.320312 44.132812 -27.4375 44.1875 -23.5 C 44.132812 -19.550781 42.539062 -15.609375 39.40625 -11.671875 C 36.269531 -7.734375 32.53125 -5.054688 28.1875 -3.640625 C 23.84375 -2.328125 19.648438 -2.328125 15.609375 -3.640625 C 11.566406 -4.953125 8.332031 -7.273438 5.90625 -10.609375 C 3.488281 -13.941406 2.28125 -17.804688 2.28125 -22.203125 Z M 2.28125 -22.203125 "/></g></g></g><g fill="#fefefe" fill-opacity="1"><g transform="translate(558.959425, 564.65801)"><g><path d="M 34.09375 -39.9375 C 35.007812 -37.863281 35.46875 -36.242188 35.46875 -35.078125 C 35.46875 -33.921875 35.035156 -32.988281 34.171875 -32.28125 C 33.316406 -31.570312 32.304688 -31.21875 31.140625 -31.21875 C 29.984375 -31.21875 29.097656 -31.46875 28.484375 -31.96875 C 27.878906 -32.476562 27.351562 -33.566406 26.90625 -35.234375 C 25.894531 -38.316406 23.414062 -38.597656 19.46875 -36.078125 C 16.09375 -34.054688 13.644531 -31.125 12.125 -27.28125 C 10.613281 -23.4375 10.207031 -19.617188 10.90625 -15.828125 C 11.613281 -12.046875 13.410156 -9.171875 16.296875 -7.203125 C 19.878906 -4.773438 23.488281 -4.898438 27.125 -7.578125 C 29.195312 -9.046875 30.585938 -10.382812 31.296875 -11.59375 C 32.253906 -13.0625 33.539062 -13.691406 35.15625 -13.484375 C 36.78125 -13.285156 37.894531 -12.40625 38.5 -10.84375 C 39.40625 -8.46875 37.585938 -5.382812 33.046875 -1.59375 C 26.722656 3.5625 20.429688 4.5 14.171875 1.21875 C 9.273438 -1.3125 5.835938 -5.253906 3.859375 -10.609375 C 1.890625 -15.960938 1.789062 -21.617188 3.5625 -27.578125 C 4.625 -31.222656 6.015625 -34.179688 7.734375 -36.453125 C 9.453125 -38.722656 11.625 -40.71875 14.25 -42.4375 C 16.875 -44.15625 18.691406 -45.164062 19.703125 -45.46875 C 20.710938 -45.769531 22.53125 -45.921875 25.15625 -45.921875 C 27.832031 -45.921875 29.753906 -45.414062 30.921875 -44.40625 C 32.128906 -43.5 33.1875 -42.007812 34.09375 -39.9375 Z M 34.09375 -39.9375 "/></g></g></g><g fill="#fefefe" fill-opacity="1"><g transform="translate(611.239842, 564.65801)"><g><path d="M 13.1875 -38.1875 C 12.582031 -37.988281 12.28125 -37.484375 12.28125 -36.671875 C 12.28125 -35.867188 11.953125 -32.507812 11.296875 -26.59375 C 17.753906 -27.050781 22.144531 -27.429688 24.46875 -27.734375 C 26.800781 -28.035156 28.269531 -28.082031 28.875 -27.875 C 29.476562 -27.675781 30.285156 -27.125 31.296875 -26.21875 C 32.203125 -25.3125 32.65625 -24.550781 32.65625 -23.9375 C 32.65625 -23.332031 32.226562 -22.550781 31.375 -21.59375 C 30.46875 -20.738281 29.40625 -20.160156 28.1875 -19.859375 C 26.976562 -19.554688 24.40625 -19.300781 20.46875 -19.09375 L 11.515625 -18.5625 C 11.367188 -15.476562 11.597656 -12.671875 12.203125 -10.140625 C 12.804688 -7.617188 13.84375 -6.160156 15.3125 -5.765625 C 16.925781 -5.359375 25.585938 -4.875 41.296875 -4.3125 L 42.28125 -2.28125 C 42.738281 -1.363281 42.96875 -0.703125 42.96875 -0.296875 C 42.96875 0.0976562 42.738281 0.625 42.28125 1.28125 C 41.832031 1.945312 41.503906 2.378906 41.296875 2.578125 C 41.097656 2.773438 40.519531 2.945312 39.5625 3.09375 C 38.601562 3.25 37.488281 3.328125 36.21875 3.328125 C 34.957031 3.328125 32.785156 3.351562 29.703125 3.40625 C 21.367188 3.40625 15.535156 2.847656 12.203125 1.734375 C 8.867188 0.628906 6.492188 -1.515625 5.078125 -4.703125 C 4.367188 -6.460938 3.660156 -10.117188 2.953125 -15.671875 C 2.242188 -21.234375 2.09375 -24.367188 2.5 -25.078125 C 2.90625 -25.835938 3.257812 -27.984375 3.5625 -31.515625 C 3.863281 -35.054688 4.0625 -37.429688 4.15625 -38.640625 C 4.257812 -39.859375 4.5625 -41 5.0625 -42.0625 C 5.570312 -43.125 6.101562 -43.90625 6.65625 -44.40625 C 7.21875 -44.914062 8.15625 -45.367188 9.46875 -45.765625 C 10.832031 -46.171875 12.222656 -46.472656 13.640625 -46.671875 C 15.054688 -46.878906 17.984375 -47.1875 22.421875 -47.59375 C 26.867188 -48 29.726562 -48.398438 31 -48.796875 C 34.28125 -49.804688 36.65625 -49.65625 38.125 -48.34375 C 38.925781 -47.632812 39.328125 -46.722656 39.328125 -45.609375 C 39.328125 -44.503906 38.925781 -43.546875 38.125 -42.734375 C 37.363281 -41.929688 35.210938 -41.175781 31.671875 -40.46875 C 28.140625 -39.757812 24.328125 -39.253906 20.234375 -38.953125 C 16.140625 -38.648438 13.789062 -38.394531 13.1875 -38.1875 Z M 13.1875 -38.1875 "/></g></g></g><g fill="#fefefe" fill-opacity="1"><g transform="translate(667.763168, 564.65801)"><g><path d="M 17.578125 -45.171875 C 22.628906 -45.171875 26.414062 -44.507812 28.9375 -43.1875 C 31.46875 -41.875 33.191406 -39.679688 34.109375 -36.609375 C 34.765625 -34.628906 34.914062 -32.984375 34.5625 -31.671875 C 34.257812 -30.359375 33.445312 -29.550781 32.125 -29.25 C 30.8125 -28.945312 29.753906 -29.050781 28.953125 -29.5625 C 28.140625 -30.164062 27.378906 -31.195312 26.671875 -32.65625 C 26.015625 -34.125 25.429688 -35.109375 24.921875 -35.609375 C 24.421875 -36.117188 23.742188 -36.453125 22.890625 -36.609375 C 18.546875 -37.515625 15.160156 -37.257812 12.734375 -35.84375 C 10.910156 -34.726562 10.351562 -33.640625 11.0625 -32.578125 C 11.769531 -31.523438 14.695312 -29.695312 19.84375 -27.09375 C 25 -24.488281 28.640625 -22.378906 30.765625 -20.765625 C 32.890625 -19.148438 34.253906 -17.554688 34.859375 -15.984375 C 35.460938 -14.421875 35.660156 -12.601562 35.453125 -10.53125 C 35.253906 -8.457031 34.726562 -6.640625 33.875 -5.078125 C 29.476562 2.703125 21.472656 3.738281 9.859375 -1.96875 C 4.347656 -4.644531 2.753906 -7.273438 5.078125 -9.859375 C 5.929688 -10.867188 6.960938 -11.320312 8.171875 -11.21875 C 9.390625 -11.113281 11.222656 -10.453125 13.671875 -9.234375 C 16.128906 -8.023438 18.414062 -7.320312 20.53125 -7.125 C 22.65625 -6.925781 23.992188 -6.925781 24.546875 -7.125 C 25.109375 -7.320312 25.691406 -7.773438 26.296875 -8.484375 C 27.109375 -9.648438 27.515625 -10.6875 27.515625 -11.59375 C 27.515625 -12.5 26.675781 -13.609375 25 -14.921875 C 23.332031 -16.242188 20.238281 -17.898438 15.71875 -19.890625 C 11.195312 -21.890625 7.828125 -23.847656 5.609375 -25.765625 C 3.390625 -27.679688 2.28125 -30.082031 2.28125 -32.96875 C 2.28125 -36.757812 4.273438 -40.039062 8.265625 -42.8125 C 9.828125 -43.976562 11.0625 -44.660156 11.96875 -44.859375 C 12.882812 -45.066406 14.753906 -45.171875 17.578125 -45.171875 Z M 17.578125 -45.171875 "/></g></g></g><g fill="#fefefe" fill-opacity="1"><g transform="translate(716.861415, 564.65801)"><g><path d="M 17.578125 -45.171875 C 22.628906 -45.171875 26.414062 -44.507812 28.9375 -43.1875 C 31.46875 -41.875 33.191406 -39.679688 34.109375 -36.609375 C 34.765625 -34.628906 34.914062 -32.984375 34.5625 -31.671875 C 34.257812 -30.359375 33.445312 -29.550781 32.125 -29.25 C 30.8125 -28.945312 29.753906 -29.050781 28.953125 -29.5625 C 28.140625 -30.164062 27.378906 -31.195312 26.671875 -32.65625 C 26.015625 -34.125 25.429688 -35.109375 24.921875 -35.609375 C 24.421875 -36.117188 23.742188 -36.453125 22.890625 -36.609375 C 18.546875 -37.515625 15.160156 -37.257812 12.734375 -35.84375 C 10.910156 -34.726562 10.351562 -33.640625 11.0625 -32.578125 C 11.769531 -31.523438 14.695312 -29.695312 19.84375 -27.09375 C 25 -24.488281 28.640625 -22.378906 30.765625 -20.765625 C 32.890625 -19.148438 34.253906 -17.554688 34.859375 -15.984375 C 35.460938 -14.421875 35.660156 -12.601562 35.453125 -10.53125 C 35.253906 -8.457031 34.726562 -6.640625 33.875 -5.078125 C 29.476562 2.703125 21.472656 3.738281 9.859375 -1.96875 C 4.347656 -4.644531 2.753906 -7.273438 5.078125 -9.859375 C 5.929688 -10.867188 6.960938 -11.320312 8.171875 -11.21875 C 9.390625 -11.113281 11.222656 -10.453125 13.671875 -9.234375 C 16.128906 -8.023438 18.414062 -7.320312 20.53125 -7.125 C 22.65625 -6.925781 23.992188 -6.925781 24.546875 -7.125 C 25.109375 -7.320312 25.691406 -7.773438 26.296875 -8.484375 C 27.109375 -9.648438 27.515625 -10.6875 27.515625 -11.59375 C 27.515625 -12.5 26.675781 -13.609375 25 -14.921875 C 23.332031 -16.242188 20.238281 -17.898438 15.71875 -19.890625 C 11.195312 -21.890625 7.828125 -23.847656 5.609375 -25.765625 C 3.390625 -27.679688 2.28125 -30.082031 2.28125 -32.96875 C 2.28125 -36.757812 4.273438 -40.039062 8.265625 -42.8125 C 9.828125 -43.976562 11.0625 -44.660156 11.96875 -44.859375 C 12.882812 -45.066406 14.753906 -45.171875 17.578125 -45.171875 Z M 17.578125 -45.171875 "/></g></g></g><g fill="#fefefe" fill-opacity="1"><g transform="translate(765.959711, 564.65801)"><g><path d="M 13.1875 -38.1875 C 12.582031 -37.988281 12.28125 -37.484375 12.28125 -36.671875 C 12.28125 -35.867188 11.953125 -32.507812 11.296875 -26.59375 C 17.753906 -27.050781 22.144531 -27.429688 24.46875 -27.734375 C 26.800781 -28.035156 28.269531 -28.082031 28.875 -27.875 C 29.476562 -27.675781 30.285156 -27.125 31.296875 -26.21875 C 32.203125 -25.3125 32.65625 -24.550781 32.65625 -23.9375 C 32.65625 -23.332031 32.226562 -22.550781 31.375 -21.59375 C 30.46875 -20.738281 29.40625 -20.160156 28.1875 -19.859375 C 26.976562 -19.554688 24.40625 -19.300781 20.46875 -19.09375 L 11.515625 -18.5625 C 11.367188 -15.476562 11.597656 -12.671875 12.203125 -10.140625 C 12.804688 -7.617188 13.84375 -6.160156 15.3125 -5.765625 C 16.925781 -5.359375 25.585938 -4.875 41.296875 -4.3125 L 42.28125 -2.28125 C 42.738281 -1.363281 42.96875 -0.703125 42.96875 -0.296875 C 42.96875 0.0976562 42.738281 0.625 42.28125 1.28125 C 41.832031 1.945312 41.503906 2.378906 41.296875 2.578125 C 41.097656 2.773438 40.519531 2.945312 39.5625 3.09375 C 38.601562 3.25 37.488281 3.328125 36.21875 3.328125 C 34.957031 3.328125 32.785156 3.351562 29.703125 3.40625 C 21.367188 3.40625 15.535156 2.847656 12.203125 1.734375 C 8.867188 0.628906 6.492188 -1.515625 5.078125 -4.703125 C 4.367188 -6.460938 3.660156 -10.117188 2.953125 -15.671875 C 2.242188 -21.234375 2.09375 -24.367188 2.5 -25.078125 C 2.90625 -25.835938 3.257812 -27.984375 3.5625 -31.515625 C 3.863281 -35.054688 4.0625 -37.429688 4.15625 -38.640625 C 4.257812 -39.859375 4.5625 -41 5.0625 -42.0625 C 5.570312 -43.125 6.101562 -43.90625 6.65625 -44.40625 C 7.21875 -44.914062 8.15625 -45.367188 9.46875 -45.765625 C 10.832031 -46.171875 12.222656 -46.472656 13.640625 -46.671875 C 15.054688 -46.878906 17.984375 -47.1875 22.421875 -47.59375 C 26.867188 -48 29.726562 -48.398438 31 -48.796875 C 34.28125 -49.804688 36.65625 -49.65625 38.125 -48.34375 C 38.925781 -47.632812 39.328125 -46.722656 39.328125 -45.609375 C 39.328125 -44.503906 38.925781 -43.546875 38.125 -42.734375 C 37.363281 -41.929688 35.210938 -41.175781 31.671875 -40.46875 C 28.140625 -39.757812 24.328125 -39.253906 20.234375 -38.953125 C 16.140625 -38.648438 13.789062 -38.394531 13.1875 -38.1875 Z M 13.1875 -38.1875 "/></g></g></g><g fill="#fefefe" fill-opacity="1"><g transform="translate(822.483036, 564.65801)"><g><path d="M 17.578125 -45.171875 C 22.628906 -45.171875 26.414062 -44.507812 28.9375 -43.1875 C 31.46875 -41.875 33.191406 -39.679688 34.109375 -36.609375 C 34.765625 -34.628906 34.914062 -32.984375 34.5625 -31.671875 C 34.257812 -30.359375 33.445312 -29.550781 32.125 -29.25 C 30.8125 -28.945312 29.753906 -29.050781 28.953125 -29.5625 C 28.140625 -30.164062 27.378906 -31.195312 26.671875 -32.65625 C 26.015625 -34.125 25.429688 -35.109375 24.921875 -35.609375 C 24.421875 -36.117188 23.742188 -36.453125 22.890625 -36.609375 C 18.546875 -37.515625 15.160156 -37.257812 12.734375 -35.84375 C 10.910156 -34.726562 10.351562 -33.640625 11.0625 -32.578125 C 11.769531 -31.523438 14.695312 -29.695312 19.84375 -27.09375 C 25 -24.488281 28.640625 -22.378906 30.765625 -20.765625 C 32.890625 -19.148438 34.253906 -17.554688 34.859375 -15.984375 C 35.460938 -14.421875 35.660156 -12.601562 35.453125 -10.53125 C 35.253906 -8.457031 34.726562 -6.640625 33.875 -5.078125 C 29.476562 2.703125 21.472656 3.738281 9.859375 -1.96875 C 4.347656 -4.644531 2.753906 -7.273438 5.078125 -9.859375 C 5.929688 -10.867188 6.960938 -11.320312 8.171875 -11.21875 C 9.390625 -11.113281 11.222656 -10.453125 13.671875 -9.234375 C 16.128906 -8.023438 18.414062 -7.320312 20.53125 -7.125 C 22.65625 -6.925781 23.992188 -6.925781 24.546875 -7.125 C 25.109375 -7.320312 25.691406 -7.773438 26.296875 -8.484375 C 27.109375 -9.648438 27.515625 -10.6875 27.515625 -11.59375 C 27.515625 -12.5 26.675781 -13.609375 25 -14.921875 C 23.332031 -16.242188 20.238281 -17.898438 15.71875 -19.890625 C 11.195312 -21.890625 7.828125 -23.847656 5.609375 -25.765625 C 3.390625 -27.679688 2.28125 -30.082031 2.28125 -32.96875 C 2.28125 -36.757812 4.273438 -40.039062 8.265625 -42.8125 C 9.828125 -43.976562 11.0625 -44.660156 11.96875 -44.859375 C 12.882812 -45.066406 14.753906 -45.171875 17.578125 -45.171875 Z M 17.578125 -45.171875 "/></g></g></g><g fill="#fefefe" fill-opacity="1"><g transform="translate(871.581284, 564.65801)"><g/></g></g><g fill="#fefefe" fill-opacity="1"><g transform="translate(911.057214, 564.65801)"><g><path d="M 44.640625 -0.296875 C 42.710938 -0.296875 41.546875 -0.851562 41.140625 -1.96875 C 40.742188 -3.082031 40.492188 -6.265625 40.390625 -11.515625 C 40.390625 -16.773438 40.210938 -19.957031 39.859375 -21.0625 C 39.660156 -21.570312 39.207031 -21.171875 38.5 -19.859375 C 37.789062 -18.546875 36.703125 -16.21875 35.234375 -12.875 C 33.773438 -9.539062 32.691406 -7.140625 31.984375 -5.671875 C 31.273438 -4.210938 30.539062 -3.078125 29.78125 -2.265625 C 29.019531 -1.460938 28.347656 -1.097656 27.765625 -1.171875 C 27.191406 -1.242188 26.347656 -1.570312 25.234375 -2.15625 C 24.117188 -2.738281 22.347656 -4.847656 19.921875 -8.484375 C 17.503906 -12.117188 15.382812 -15.832031 13.5625 -19.625 C 12.601562 -21.445312 11.957031 -22.359375 11.625 -22.359375 C 11.300781 -22.359375 10.988281 -18.0625 10.6875 -9.46875 C 10.382812 -0.882812 10.03125 4.265625 9.625 5.984375 C 9.21875 7.703125 8.15625 8.5625 6.4375 8.5625 C 5.332031 8.613281 4.425781 8.285156 3.71875 7.578125 C 3.007812 6.867188 2.578125 5.957031 2.421875 4.84375 C 2.273438 3.738281 2.222656 0.800781 2.265625 -3.96875 C 2.316406 -8.75 2.59375 -14.976562 3.09375 -22.65625 C 3.601562 -30.332031 4.007812 -34.96875 4.3125 -36.5625 C 4.625 -38.15625 5.234375 -39.507812 6.140625 -40.625 C 7.148438 -41.726562 8.257812 -42.226562 9.46875 -42.125 C 10.6875 -42.03125 11.546875 -41.726562 12.046875 -41.21875 C 12.554688 -40.71875 13.59375 -38.75 15.15625 -35.3125 C 16.71875 -31.875 18.863281 -27.578125 21.59375 -22.421875 C 24.320312 -17.273438 25.835938 -14.625 26.140625 -14.46875 C 26.648438 -14.320312 28.46875 -17.9375 31.59375 -25.3125 C 34.726562 -32.6875 36.90625 -37.15625 38.125 -38.71875 C 38.976562 -39.6875 40.035156 -40.320312 41.296875 -40.625 C 42.566406 -40.925781 43.65625 -40.769531 44.5625 -40.15625 C 45.46875 -39.550781 46.285156 -36.925781 47.015625 -32.28125 C 47.753906 -27.632812 48.171875 -22.832031 48.265625 -17.875 C 48.367188 -12.925781 48.472656 -9.441406 48.578125 -7.421875 C 48.679688 -5.398438 48.53125 -3.859375 48.125 -2.796875 C 47.820312 -1.742188 47.414062 -1.0625 46.90625 -0.75 C 46.40625 -0.445312 45.648438 -0.296875 44.640625 -0.296875 Z M 44.640625 -0.296875 "/></g></g></g><g fill="#fefefe" fill-opacity="1"><g transform="translate(973.263037, 564.65801)"><g><path d="M 32.125 -18.1875 C 32.03125 -19 30.539062 -23.066406 27.65625 -30.390625 C 24.269531 -24.023438 22.53125 -20.410156 22.4375 -19.546875 C 22.53125 -19.347656 24.144531 -19.046875 27.28125 -18.640625 C 30.414062 -18.234375 32.03125 -18.082031 32.125 -18.1875 Z M 3.796875 1.21875 C 2.785156 0.207031 2.28125 -0.597656 2.28125 -1.203125 C 2.28125 -1.816406 3.132812 -3.382812 4.84375 -5.90625 C 6.5625 -8.4375 10.195312 -15.054688 15.75 -25.765625 C 21.3125 -36.472656 24.472656 -42.410156 25.234375 -43.578125 C 25.785156 -44.335938 26.769531 -44.613281 28.1875 -44.40625 C 29.601562 -44.207031 30.738281 -43.601562 31.59375 -42.59375 C 32.457031 -41.582031 33.242188 -39.914062 33.953125 -37.59375 C 34.660156 -35.269531 36.425781 -30.367188 39.25 -22.890625 C 42.082031 -15.410156 44.050781 -10.359375 45.15625 -7.734375 C 46.269531 -5.109375 46.925781 -3.210938 47.125 -2.046875 C 47.332031 -0.878906 47.179688 0.00390625 46.671875 0.609375 C 46.171875 1.210938 45.238281 1.613281 43.875 1.8125 C 42.5625 2.019531 41.425781 1.640625 40.46875 0.671875 C 39.507812 -0.285156 38.675781 -1.617188 37.96875 -3.328125 C 37.207031 -5.046875 36.675781 -6.207031 36.375 -6.8125 C 36.070312 -7.425781 35.664062 -7.910156 35.15625 -8.265625 C 34.65625 -8.515625 34.203125 -8.6875 33.796875 -8.78125 C 33.390625 -8.882812 32.734375 -9.035156 31.828125 -9.234375 C 30.921875 -9.441406 29.582031 -9.796875 27.8125 -10.296875 C 26.039062 -10.804688 22.78125 -11.1875 18.03125 -11.4375 L 14.015625 -5.078125 C 12.097656 -1.941406 10.632812 0.128906 9.625 1.140625 C 8.5625 2.203125 7.578125 2.734375 6.671875 2.734375 C 5.765625 2.734375 4.804688 2.226562 3.796875 1.21875 Z M 3.796875 1.21875 "/></g></g></g><g fill="#fefefe" fill-opacity="1"><g transform="translate(1034.029271, 564.65801)"><g><path d="M 11.0625 -41.75 C 11.164062 -39.332031 11.671875 -34.429688 12.578125 -27.046875 C 13.484375 -19.671875 14.289062 -14.597656 15 -11.828125 L 20 -12.28125 C 27.175781 -12.882812 31.472656 -14.953125 32.890625 -18.484375 C 33.597656 -20.203125 33.847656 -22.476562 33.640625 -25.3125 C 33.441406 -28.144531 32.835938 -30.394531 31.828125 -32.0625 C 30.867188 -33.726562 29.140625 -35.492188 26.640625 -37.359375 C 24.140625 -39.234375 21.828125 -40.5 19.703125 -41.15625 C 14.453125 -42.769531 11.570312 -43.117188 11.0625 -42.203125 Z M 2.578125 -40.625 C 2.273438 -43.445312 2.171875 -45.3125 2.265625 -46.21875 C 2.367188 -47.132812 2.800781 -48.273438 3.5625 -49.640625 C 4.320312 -51.003906 5.054688 -51.835938 5.765625 -52.140625 C 6.472656 -52.441406 7.53125 -52.488281 8.9375 -52.28125 C 10.351562 -52.082031 13.03125 -51.476562 16.96875 -50.46875 C 20.914062 -49.351562 24.253906 -48.140625 26.984375 -46.828125 C 29.710938 -45.515625 32.285156 -43.695312 34.703125 -41.375 C 37.128906 -39.050781 38.847656 -36.738281 39.859375 -34.4375 C 40.867188 -32.144531 41.472656 -29.316406 41.671875 -25.953125 C 41.878906 -22.597656 41.878906 -20.363281 41.671875 -19.25 C 41.472656 -18.132812 41.019531 -16.644531 40.3125 -14.78125 C 38.894531 -11.539062 36.671875 -9.0625 33.640625 -7.34375 C 30.660156 -5.582031 27.035156 -4.550781 22.765625 -4.25 C 18.503906 -3.945312 15.640625 -3.335938 14.171875 -2.421875 C 12.703125 -1.515625 11.445312 -1.195312 10.40625 -1.46875 C 9.375 -1.75 8.390625 -2.75 7.453125 -4.46875 C 6.523438 -6.1875 6.109375 -8.003906 6.203125 -9.921875 C 6.304688 -11.847656 5.804688 -16.75 4.703125 -24.625 C 3.484375 -32.457031 2.773438 -37.789062 2.578125 -40.625 Z M 2.578125 -40.625 "/></g></g></g><g fill="#fefefe" fill-opacity="1"><g transform="translate(1089.416096, 564.65801)"><g><path d="M 13.1875 -38.1875 C 12.582031 -37.988281 12.28125 -37.484375 12.28125 -36.671875 C 12.28125 -35.867188 11.953125 -32.507812 11.296875 -26.59375 C 17.753906 -27.050781 22.144531 -27.429688 24.46875 -27.734375 C 26.800781 -28.035156 28.269531 -28.082031 28.875 -27.875 C 29.476562 -27.675781 30.285156 -27.125 31.296875 -26.21875 C 32.203125 -25.3125 32.65625 -24.550781 32.65625 -23.9375 C 32.65625 -23.332031 32.226562 -22.550781 31.375 -21.59375 C 30.46875 -20.738281 29.40625 -20.160156 28.1875 -19.859375 C 26.976562 -19.554688 24.40625 -19.300781 20.46875 -19.09375 L 11.515625 -18.5625 C 11.367188 -15.476562 11.597656 -12.671875 12.203125 -10.140625 C 12.804688 -7.617188 13.84375 -6.160156 15.3125 -5.765625 C 16.925781 -5.359375 25.585938 -4.875 41.296875 -4.3125 L 42.28125 -2.28125 C 42.738281 -1.363281 42.96875 -0.703125 42.96875 -0.296875 C 42.96875 0.0976562 42.738281 0.625 42.28125 1.28125 C 41.832031 1.945312 41.503906 2.378906 41.296875 2.578125 C 41.097656 2.773438 40.519531 2.945312 39.5625 3.09375 C 38.601562 3.25 37.488281 3.328125 36.21875 3.328125 C 34.957031 3.328125 32.785156 3.351562 29.703125 3.40625 C 21.367188 3.40625 15.535156 2.847656 12.203125 1.734375 C 8.867188 0.628906 6.492188 -1.515625 5.078125 -4.703125 C 4.367188 -6.460938 3.660156 -10.117188 2.953125 -15.671875 C 2.242188 -21.234375 2.09375 -24.367188 2.5 -25.078125 C 2.90625 -25.835938 3.257812 -27.984375 3.5625 -31.515625 C 3.863281 -35.054688 4.0625 -37.429688 4.15625 -38.640625 C 4.257812 -39.859375 4.5625 -41 5.0625 -42.0625 C 5.570312 -43.125 6.101562 -43.90625 6.65625 -44.40625 C 7.21875 -44.914062 8.15625 -45.367188 9.46875 -45.765625 C 10.832031 -46.171875 12.222656 -46.472656 13.640625 -46.671875 C 15.054688 -46.878906 17.984375 -47.1875 22.421875 -47.59375 C 26.867188 -48 29.726562 -48.398438 31 -48.796875 C 34.28125 -49.804688 36.65625 -49.65625 38.125 -48.34375 C 38.925781 -47.632812 39.328125 -46.722656 39.328125 -45.609375 C 39.328125 -44.503906 38.925781 -43.546875 38.125 -42.734375 C 37.363281 -41.929688 35.210938 -41.175781 31.671875 -40.46875 C 28.140625 -39.757812 24.328125 -39.253906 20.234375 -38.953125 C 16.140625 -38.648438 13.789062 -38.394531 13.1875 -38.1875 Z M 13.1875 -38.1875 "/></g></g></g><g fill="#fefefe" fill-opacity="1"><g transform="translate(1145.93947, 564.65801)"><g/></g></g><g fill="#fefefe" fill-opacity="1"><g transform="translate(1185.415401, 564.65801)"><g><path d="M 13.1875 -38.1875 C 12.582031 -37.988281 12.28125 -37.484375 12.28125 -36.671875 C 12.28125 -35.867188 11.953125 -32.507812 11.296875 -26.59375 C 17.753906 -27.050781 22.144531 -27.429688 24.46875 -27.734375 C 26.800781 -28.035156 28.269531 -28.082031 28.875 -27.875 C 29.476562 -27.675781 30.285156 -27.125 31.296875 -26.21875 C 32.203125 -25.3125 32.65625 -24.550781 32.65625 -23.9375 C 32.65625 -23.332031 32.226562 -22.550781 31.375 -21.59375 C 30.46875 -20.738281 29.40625 -20.160156 28.1875 -19.859375 C 26.976562 -19.554688 24.40625 -19.300781 20.46875 -19.09375 L 11.515625 -18.5625 C 11.367188 -15.476562 11.597656 -12.671875 12.203125 -10.140625 C 12.804688 -7.617188 13.84375 -6.160156 15.3125 -5.765625 C 16.925781 -5.359375 25.585938 -4.875 41.296875 -4.3125 L 42.28125 -2.28125 C 42.738281 -1.363281 42.96875 -0.703125 42.96875 -0.296875 C 42.96875 0.0976562 42.738281 0.625 42.28125 1.28125 C 41.832031 1.945312 41.503906 2.378906 41.296875 2.578125 C 41.097656 2.773438 40.519531 2.945312 39.5625 3.09375 C 38.601562 3.25 37.488281 3.328125 36.21875 3.328125 C 34.957031 3.328125 32.785156 3.351562 29.703125 3.40625 C 21.367188 3.40625 15.535156 2.847656 12.203125 1.734375 C 8.867188 0.628906 6.492188 -1.515625 5.078125 -4.703125 C 4.367188 -6.460938 3.660156 -10.117188 2.953125 -15.671875 C 2.242188 -21.234375 2.09375 -24.367188 2.5 -25.078125 C 2.90625 -25.835938 3.257812 -27.984375 3.5625 -31.515625 C 3.863281 -35.054688 4.0625 -37.429688 4.15625 -38.640625 C 4.257812 -39.859375 4.5625 -41 5.0625 -42.0625 C 5.570312 -43.125 6.101562 -43.90625 6.65625 -44.40625 C 7.21875 -44.914062 8.15625 -45.367188 9.46875 -45.765625 C 10.832031 -46.171875 12.222656 -46.472656 13.640625 -46.671875 C 15.054688 -46.878906 17.984375 -47.1875 22.421875 -47.59375 C 26.867188 -48 29.726562 -48.398438 31 -48.796875 C 34.28125 -49.804688 36.65625 -49.65625 38.125 -48.34375 C 38.925781 -47.632812 39.328125 -46.722656 39.328125 -45.609375 C 39.328125 -44.503906 38.925781 -43.546875 38.125 -42.734375 C 37.363281 -41.929688 35.210938 -41.175781 31.671875 -40.46875 C 28.140625 -39.757812 24.328125 -39.253906 20.234375 -38.953125 C 16.140625 -38.648438 13.789062 -38.394531 13.1875 -38.1875 Z M 13.1875 -38.1875 "/></g></g></g><g fill="#fefefe" fill-opacity="1"><g transform="translate(1241.938678, 564.65801)"><g><path d="M 32.125 -18.1875 C 32.03125 -19 30.539062 -23.066406 27.65625 -30.390625 C 24.269531 -24.023438 22.53125 -20.410156 22.4375 -19.546875 C 22.53125 -19.347656 24.144531 -19.046875 27.28125 -18.640625 C 30.414062 -18.234375 32.03125 -18.082031 32.125 -18.1875 Z M 3.796875 1.21875 C 2.785156 0.207031 2.28125 -0.597656 2.28125 -1.203125 C 2.28125 -1.816406 3.132812 -3.382812 4.84375 -5.90625 C 6.5625 -8.4375 10.195312 -15.054688 15.75 -25.765625 C 21.3125 -36.472656 24.472656 -42.410156 25.234375 -43.578125 C 25.785156 -44.335938 26.769531 -44.613281 28.1875 -44.40625 C 29.601562 -44.207031 30.738281 -43.601562 31.59375 -42.59375 C 32.457031 -41.582031 33.242188 -39.914062 33.953125 -37.59375 C 34.660156 -35.269531 36.425781 -30.367188 39.25 -22.890625 C 42.082031 -15.410156 44.050781 -10.359375 45.15625 -7.734375 C 46.269531 -5.109375 46.925781 -3.210938 47.125 -2.046875 C 47.332031 -0.878906 47.179688 0.00390625 46.671875 0.609375 C 46.171875 1.210938 45.238281 1.613281 43.875 1.8125 C 42.5625 2.019531 41.425781 1.640625 40.46875 0.671875 C 39.507812 -0.285156 38.675781 -1.617188 37.96875 -3.328125 C 37.207031 -5.046875 36.675781 -6.207031 36.375 -6.8125 C 36.070312 -7.425781 35.664062 -7.910156 35.15625 -8.265625 C 34.65625 -8.515625 34.203125 -8.6875 33.796875 -8.78125 C 33.390625 -8.882812 32.734375 -9.035156 31.828125 -9.234375 C 30.921875 -9.441406 29.582031 -9.796875 27.8125 -10.296875 C 26.039062 -10.804688 22.78125 -11.1875 18.03125 -11.4375 L 14.015625 -5.078125 C 12.097656 -1.941406 10.632812 0.128906 9.625 1.140625 C 8.5625 2.203125 7.578125 2.734375 6.671875 2.734375 C 5.765625 2.734375 4.804688 2.226562 3.796875 1.21875 Z M 3.796875 1.21875 "/></g></g></g><g fill="#fefefe" fill-opacity="1"><g transform="translate(1302.704912, 564.65801)"><g><path d="M 17.578125 -45.171875 C 22.628906 -45.171875 26.414062 -44.507812 28.9375 -43.1875 C 31.46875 -41.875 33.191406 -39.679688 34.109375 -36.609375 C 34.765625 -34.628906 34.914062 -32.984375 34.5625 -31.671875 C 34.257812 -30.359375 33.445312 -29.550781 32.125 -29.25 C 30.8125 -28.945312 29.753906 -29.050781 28.953125 -29.5625 C 28.140625 -30.164062 27.378906 -31.195312 26.671875 -32.65625 C 26.015625 -34.125 25.429688 -35.109375 24.921875 -35.609375 C 24.421875 -36.117188 23.742188 -36.453125 22.890625 -36.609375 C 18.546875 -37.515625 15.160156 -37.257812 12.734375 -35.84375 C 10.910156 -34.726562 10.351562 -33.640625 11.0625 -32.578125 C 11.769531 -31.523438 14.695312 -29.695312 19.84375 -27.09375 C 25 -24.488281 28.640625 -22.378906 30.765625 -20.765625 C 32.890625 -19.148438 34.253906 -17.554688 34.859375 -15.984375 C 35.460938 -14.421875 35.660156 -12.601562 35.453125 -10.53125 C 35.253906 -8.457031 34.726562 -6.640625 33.875 -5.078125 C 29.476562 2.703125 21.472656 3.738281 9.859375 -1.96875 C 4.347656 -4.644531 2.753906 -7.273438 5.078125 -9.859375 C 5.929688 -10.867188 6.960938 -11.320312 8.171875 -11.21875 C 9.390625 -11.113281 11.222656 -10.453125 13.671875 -9.234375 C 16.128906 -8.023438 18.414062 -7.320312 20.53125 -7.125 C 22.65625 -6.925781 23.992188 -6.925781 24.546875 -7.125 C 25.109375 -7.320312 25.691406 -7.773438 26.296875 -8.484375 C 27.109375 -9.648438 27.515625 -10.6875 27.515625 -11.59375 C 27.515625 -12.5 26.675781 -13.609375 25 -14.921875 C 23.332031 -16.242188 20.238281 -17.898438 15.71875 -19.890625 C 11.195312 -21.890625 7.828125 -23.847656 5.609375 -25.765625 C 3.390625 -27.679688 2.28125 -30.082031 2.28125 -32.96875 C 2.28125 -36.757812 4.273438 -40.039062 8.265625 -42.8125 C 9.828125 -43.976562 11.0625 -44.660156 11.96875 -44.859375 C 12.882812 -45.066406 14.753906 -45.171875 17.578125 -45.171875 Z M 17.578125 -45.171875 "/></g></g></g><g fill="#fefefe" fill-opacity="1"><g transform="translate(1351.803208, 564.65801)"><g><path d="M 18.109375 -27.515625 C 18.460938 -27.460938 18.941406 -28.09375 19.546875 -29.40625 C 20.160156 -30.71875 22.4375 -34.351562 26.375 -40.3125 C 30.363281 -46.28125 32.609375 -49.414062 33.109375 -49.71875 C 34.378906 -50.570312 35.742188 -50.617188 37.203125 -49.859375 C 38.671875 -49.109375 39.40625 -48 39.40625 -46.53125 C 38.800781 -44.613281 36.171875 -39.960938 31.515625 -32.578125 C 26.867188 -25.203125 24.367188 -21.265625 24.015625 -20.765625 L 20.921875 -15.078125 C 20.921875 -14.472656 21.019531 -12.628906 21.21875 -9.546875 C 21.414062 -6.460938 21.59375 -3.894531 21.75 -1.84375 C 21.90625 0.195312 22.082031 1.722656 22.28125 2.734375 C 22.476562 3.742188 21.945312 4.851562 20.6875 6.0625 C 19.425781 7.269531 18.1875 7.722656 16.96875 7.421875 C 15.757812 7.023438 14.90625 6.21875 14.40625 5 C 13.945312 3.789062 13.613281 1.0625 13.40625 -3.1875 C 12.851562 -13.488281 11.007812 -22.125 7.875 -29.09375 C 4.75 -36.070312 2.929688 -40.769531 2.421875 -43.1875 C 1.921875 -45.613281 2.453125 -47.234375 4.015625 -48.046875 C 5.578125 -48.859375 6.863281 -48.957031 7.875 -48.34375 C 8.882812 -47.738281 9.894531 -46.070312 10.90625 -43.34375 C 11.820312 -40.613281 13.1875 -37.28125 15 -33.34375 C 16.820312 -29.40625 17.859375 -27.460938 18.109375 -27.515625 Z M 18.109375 -27.515625 "/></g></g></g></g></g></svg>