<svg xmlns="http://www.w3.org/2000/svg" xmlns:xlink="http://www.w3.org/1999/xlink" viewBox="36 464 1428 571" preserveAspectRatio="xMidYMid meet"><defs><g/><clipPath id="6b347248bb"><rect x="0" width="1428" y="0" height="571"/></clipPath></defs><g transform="matrix(1, 0, 0, 1, 36, 464)"><g clip-path="url(#6b347248bb)"><g fill="#000000" fill-opacity="1"><g transform="translate(0.289852, 456.353276)"><g><path d="M 70.03125 2.84375 C 55.226562 1.707031 44.03125 -0.472656 36.4375 -3.703125 C 28.84375 -6.929688 23.71875 -12.53125 21.0625 -20.5 C 18.40625 -28.46875 17.078125 -40.046875 17.078125 -55.234375 C 17.835938 -77.628906 18.023438 -100.210938 17.640625 -122.984375 C 17.265625 -145.753906 17.078125 -168.148438 17.078125 -190.171875 C 17.460938 -212.566406 17.75 -235.71875 17.9375 -259.625 C 18.125 -283.539062 18.410156 -306.890625 18.796875 -329.671875 C 19.171875 -347.128906 21.347656 -360.03125 25.328125 -368.375 C 29.316406 -376.726562 36.148438 -382.234375 45.828125 -384.890625 C 55.515625 -387.554688 68.707031 -388.695312 85.40625 -388.3125 C 93.375 -388.3125 102.195312 -388.40625 111.875 -388.59375 C 121.5625 -388.789062 130.671875 -388.035156 139.203125 -386.328125 C 147.742188 -384.617188 154.578125 -381.101562 159.703125 -375.78125 C 164.828125 -370.46875 166.820312 -362.117188 165.6875 -350.734375 C 167.582031 -326.816406 169.476562 -302.804688 171.375 -278.703125 C 173.28125 -254.597656 174.613281 -230.59375 175.375 -206.6875 C 175.75 -199.46875 178.398438 -193.484375 183.328125 -188.734375 C 188.265625 -183.992188 194.34375 -181.625 201.5625 -181.625 C 208.394531 -181.625 215.414062 -181.625 222.625 -181.625 C 229.832031 -181.625 236.851562 -181.4375 243.6875 -181.0625 C 251.28125 -181.0625 257.445312 -182.671875 262.1875 -185.890625 C 266.9375 -189.117188 269.503906 -193.203125 269.890625 -198.140625 C 269.890625 -201.179688 269.984375 -204.125 270.171875 -206.96875 C 270.359375 -209.8125 270.453125 -212.5625 270.453125 -215.21875 L 271.015625 -221.484375 L 272.15625 -307.46875 C 271.78125 -328.71875 271.78125 -345.226562 272.15625 -357 C 272.539062 -368.769531 274.628906 -376.929688 278.421875 -381.484375 C 282.222656 -386.035156 289.242188 -388.3125 299.484375 -388.3125 C 308.972656 -388.3125 315.519531 -386.601562 319.125 -383.1875 C 322.738281 -379.769531 324.925781 -374.171875 325.6875 -366.390625 C 326.445312 -358.609375 327.015625 -348.078125 327.390625 -334.796875 C 328.148438 -320.742188 328.71875 -303.941406 329.09375 -284.390625 C 329.476562 -264.847656 329.671875 -245.394531 329.671875 -226.03125 C 329.671875 -206.675781 329.289062 -189.789062 328.53125 -175.375 L 327.953125 -169.109375 C 327.953125 -166.066406 328.046875 -162.835938 328.234375 -159.421875 C 328.429688 -156.003906 328.53125 -152.398438 328.53125 -148.609375 C 329.289062 -115.585938 329.570312 -89.300781 329.375 -69.75 C 329.1875 -50.195312 328.238281 -35.582031 326.53125 -25.90625 C 324.820312 -16.226562 321.785156 -9.867188 317.421875 -6.828125 C 313.054688 -3.796875 307.078125 -2.28125 299.484375 -2.28125 C 290.378906 -2.28125 283.925781 -3.988281 280.125 -7.40625 C 276.332031 -10.820312 274.148438 -16.515625 273.578125 -24.484375 C 273.015625 -32.453125 272.351562 -42.890625 271.59375 -55.796875 L 269.890625 -97.9375 C 269.503906 -105.519531 267.507812 -111.875 263.90625 -117 C 260.300781 -122.125 255.84375 -124.5 250.53125 -124.125 C 243.695312 -123.738281 236.101562 -123.453125 227.75 -123.265625 C 219.394531 -123.078125 210.285156 -122.984375 200.421875 -122.984375 C 193.210938 -122.984375 187.234375 -120.988281 182.484375 -117 C 177.742188 -113.019531 175.179688 -107.992188 174.796875 -101.921875 C 175.179688 -75.722656 174.992188 -55.03125 174.234375 -39.84375 C 173.472656 -24.664062 170.148438 -13.660156 164.265625 -6.828125 C 158.378906 0.00390625 148.128906 3.894531 133.515625 4.84375 C 118.898438 5.789062 97.738281 5.125 70.03125 2.84375 Z M 70.03125 2.84375 "/></g></g></g><g fill="#000000" fill-opacity="1"><g transform="translate(347.034236, 456.353276)"><g><path d="M 177.078125 2.28125 C 160.367188 1.132812 143.285156 -1.332031 125.828125 -5.125 C 108.367188 -8.914062 91.953125 -15.082031 76.578125 -23.625 C 61.203125 -32.164062 48.578125 -44.023438 38.703125 -59.203125 C 28.835938 -74.390625 23.335938 -93.941406 22.203125 -117.859375 C 21.066406 -139.117188 19.738281 -158.570312 18.21875 -176.21875 C 16.695312 -193.875 16.890625 -213.140625 18.796875 -234.015625 C 25.617188 -299.679688 45.828125 -344.660156 79.421875 -368.953125 C 113.015625 -393.242188 162.457031 -401.023438 227.75 -392.296875 C 246.351562 -390.023438 263.53125 -383.476562 279.28125 -372.65625 C 295.03125 -361.832031 305.941406 -348.070312 312.015625 -331.375 C 317.328125 -316.945312 321.023438 -298.914062 323.109375 -277.28125 C 325.203125 -255.644531 326.34375 -233.25 326.53125 -210.09375 C 326.726562 -186.945312 326.632812 -165.691406 326.25 -146.328125 C 326.25 -136.460938 325.675781 -125.171875 324.53125 -112.453125 C 323.394531 -99.734375 321.304688 -87.109375 318.265625 -74.578125 C 315.234375 -62.054688 310.875 -50.671875 305.1875 -40.421875 C 304.800781 -40.046875 304.800781 -39.476562 305.1875 -38.71875 C 310.5 -27.332031 314.007812 -15.847656 315.71875 -4.265625 C 317.425781 7.304688 314.484375 15.179688 306.890625 19.359375 C 295.878906 25.804688 287.71875 26.847656 282.40625 22.484375 C 277.09375 18.117188 270.070312 8.914062 261.34375 -5.125 C 260.96875 -6.257812 259.828125 -6.445312 257.921875 -5.6875 C 244.640625 -1.894531 230.3125 0.566406 214.9375 1.703125 C 199.5625 2.847656 186.941406 3.039062 177.078125 2.28125 Z M 170.25 -200.421875 C 169.101562 -186.378906 168.816406 -172.425781 169.390625 -158.5625 C 169.960938 -144.707031 170.625 -130.570312 171.375 -116.15625 C 171.375 -106.28125 172.414062 -95.457031 174.5 -83.6875 C 176.59375 -71.925781 180.675781 -61.773438 186.75 -53.234375 C 192.820312 -44.691406 201.929688 -40.421875 214.078125 -40.421875 C 217.878906 -40.421875 221.390625 -40.515625 224.609375 -40.703125 C 227.835938 -40.898438 230.78125 -41.1875 233.4375 -41.5625 C 235.71875 -42.320312 236.289062 -43.648438 235.15625 -45.546875 C 229.457031 -54.273438 223.953125 -63.003906 218.640625 -71.734375 C 213.328125 -80.472656 207.0625 -90.914062 199.84375 -103.0625 C 197.570312 -107.613281 195.484375 -113.019531 193.578125 -119.28125 C 191.679688 -125.539062 191.394531 -131.707031 192.71875 -137.78125 C 194.050781 -143.863281 197.945312 -148.421875 204.40625 -151.453125 C 207.4375 -152.972656 211.609375 -153.734375 216.921875 -153.734375 C 222.242188 -153.734375 228.796875 -150.503906 236.578125 -144.046875 C 244.359375 -137.597656 253.375 -125.453125 263.625 -107.609375 C 265.132812 -105.710938 266.363281 -103.53125 267.3125 -101.0625 C 268.269531 -98.59375 269.316406 -96.222656 270.453125 -93.953125 C 271.210938 -92.429688 272.347656 -91.765625 273.859375 -91.953125 C 275.378906 -92.140625 276.332031 -92.992188 276.71875 -94.515625 C 282.03125 -116.148438 285.445312 -144.617188 286.96875 -179.921875 C 288.488281 -215.222656 284.3125 -255.078125 274.4375 -299.484375 C 271.019531 -314.671875 266.179688 -326.34375 259.921875 -334.5 C 253.660156 -342.664062 245.59375 -346.5625 235.71875 -346.1875 C 222.8125 -347.320312 212.179688 -345.328125 203.828125 -340.203125 C 195.484375 -335.078125 189.03125 -328.429688 184.46875 -320.265625 C 179.914062 -312.109375 176.882812 -304.046875 175.375 -296.078125 C 172.707031 -263.054688 171 -231.171875 170.25 -200.421875 Z M 170.25 -200.421875 "/></g></g></g><g fill="#000000" fill-opacity="1"><g transform="translate(690.931674, 456.353276)"><g><path d="M 45.546875 3.421875 C 31.878906 -1.140625 23.71875 -7.785156 21.0625 -16.515625 C 18.40625 -25.242188 17.078125 -35.300781 17.078125 -46.6875 C 17.835938 -61.875 18.691406 -73.734375 19.640625 -82.265625 C 20.585938 -90.804688 23.148438 -97.359375 27.328125 -101.921875 C 31.878906 -106.472656 38.234375 -109.695312 46.390625 -111.59375 C 54.554688 -113.488281 66.039062 -114.4375 80.84375 -114.4375 C 93.75 -114.4375 104.28125 -112.914062 112.4375 -109.875 C 120.601562 -106.84375 126.773438 -100.394531 130.953125 -90.53125 C 135.128906 -80.664062 137.785156 -65.671875 138.921875 -45.546875 C 139.304688 -39.859375 139.398438 -35.207031 139.203125 -31.59375 C 139.015625 -27.988281 138.539062 -24.671875 137.78125 -21.640625 C 135.882812 -13.285156 131.140625 -6.925781 123.546875 -2.5625 C 115.960938 1.800781 107.046875 4.644531 96.796875 5.96875 C 86.546875 7.300781 76.769531 7.679688 67.46875 7.109375 C 58.164062 6.546875 50.859375 5.316406 45.546875 3.421875 Z M 45.546875 3.421875 "/></g></g></g><g fill="#000000" fill-opacity="1"><g transform="translate(846.938156, 456.353276)"><g><path d="M 126.96875 0 C 124.6875 0 123.359375 -0.1875 122.984375 -0.5625 C 119.191406 -0.5625 115.207031 -0.5625 111.03125 -0.5625 C 106.851562 -0.5625 102.675781 -0.753906 98.5 -1.140625 C 86.726562 -1.140625 74.769531 -1.707031 62.625 -2.84375 C 44.03125 -4.363281 31.597656 -8.632812 25.328125 -15.65625 C 19.066406 -22.675781 16.316406 -36.4375 17.078125 -56.9375 L 17.078125 -57.5 C 18.972656 -71.925781 21.816406 -87.679688 25.609375 -104.765625 C 29.410156 -121.847656 34.347656 -140.445312 40.421875 -160.5625 C 43.835938 -171.1875 47.0625 -181.625 50.09375 -191.875 C 53.132812 -202.125 56.363281 -212.1875 59.78125 -222.0625 C 66.238281 -241.414062 72.597656 -260.863281 78.859375 -280.40625 C 85.117188 -299.957031 90.71875 -319.796875 95.65625 -339.921875 C 100.59375 -359.660156 108.847656 -373.609375 120.421875 -381.765625 C 131.992188 -389.921875 148.410156 -393.429688 169.671875 -392.296875 C 170.429688 -391.921875 174.226562 -391.539062 181.0625 -391.15625 C 187.894531 -390.78125 195.484375 -390.6875 203.828125 -390.875 C 212.179688 -391.0625 218.632812 -391.726562 223.1875 -392.875 C 242.550781 -397.425781 257.164062 -390.019531 267.03125 -370.65625 C 270.070312 -364.582031 273.109375 -357.84375 276.140625 -350.4375 C 279.179688 -343.039062 282.03125 -336.117188 284.6875 -329.671875 C 295.695312 -295.128906 305.660156 -260.679688 314.578125 -226.328125 C 323.492188 -191.972656 331.941406 -158.09375 339.921875 -124.6875 C 341.816406 -120.132812 343.617188 -115.203125 345.328125 -109.890625 C 347.035156 -104.578125 348.648438 -99.640625 350.171875 -95.078125 C 353.960938 -82.179688 357.28125 -71.835938 360.125 -64.046875 C 362.976562 -56.265625 364.59375 -51.617188 364.96875 -50.109375 C 366.863281 -43.273438 368.757812 -36.820312 370.65625 -30.75 C 372.5625 -24.675781 373.035156 -19.078125 372.078125 -13.953125 C 371.128906 -8.828125 366.863281 -4.175781 359.28125 0 C 353.582031 2.65625 348.265625 3.128906 343.328125 1.421875 C 338.398438 -0.285156 334.226562 -2.46875 330.8125 -5.125 C 325.875 -8.539062 321.789062 -12.8125 318.5625 -17.9375 C 315.332031 -23.0625 312.203125 -29.226562 309.171875 -36.4375 C 308.785156 -38.332031 307.738281 -42.695312 306.03125 -49.53125 C 304.332031 -56.363281 302.34375 -63.859375 300.0625 -72.015625 C 297.78125 -80.179688 295.691406 -87.679688 293.796875 -94.515625 C 291.898438 -101.347656 290.570312 -105.90625 289.8125 -108.1875 C 286.019531 -119.945312 279.472656 -128.195312 270.171875 -132.9375 C 260.867188 -137.6875 247.109375 -140.0625 228.890625 -140.0625 C 217.503906 -140.0625 209.722656 -137.878906 205.546875 -133.515625 C 201.367188 -129.148438 197.191406 -119.945312 193.015625 -105.90625 C 192.253906 -101.351562 191.207031 -96.703125 189.875 -91.953125 C 188.550781 -87.210938 187.320312 -82.753906 186.1875 -78.578125 C 184.664062 -71.742188 182.859375 -64.910156 180.765625 -58.078125 C 178.679688 -51.242188 176.691406 -44.410156 174.796875 -37.578125 C 166.828125 -12.523438 150.882812 0 126.96875 0 Z M 223.1875 -216.9375 C 219.78125 -205.539062 221.679688 -197.378906 228.890625 -192.453125 C 235.722656 -185.617188 244.644531 -184.859375 255.65625 -190.171875 C 264.382812 -193.960938 267.609375 -201.554688 265.328125 -212.953125 C 264.566406 -218.640625 263.425781 -225.941406 261.90625 -234.859375 C 260.394531 -243.785156 258.5 -251.945312 256.21875 -259.34375 C 253.9375 -266.75 251.375 -271.585938 248.53125 -273.859375 C 245.6875 -276.140625 242.742188 -273.675781 239.703125 -266.46875 C 237.046875 -257.351562 234.390625 -248.710938 231.734375 -240.546875 C 229.078125 -232.390625 226.226562 -224.519531 223.1875 -216.9375 Z M 223.1875 -216.9375 "/></g></g></g><g fill="#000000" fill-opacity="1"><g transform="translate(1236.384956, 456.353276)"><g><path d="M 71.734375 2.84375 C 57.691406 1.707031 46.78125 -0.28125 39 -3.125 C 31.21875 -5.976562 25.710938 -10.820312 22.484375 -17.65625 C 19.265625 -24.488281 17.460938 -34.164062 17.078125 -46.6875 L 17.078125 -55.234375 C 17.078125 -55.992188 17.078125 -56.847656 17.078125 -57.796875 C 17.078125 -58.742188 17.078125 -59.597656 17.078125 -60.359375 C 17.460938 -82.753906 18.03125 -105.90625 18.78125 -129.8125 C 19.539062 -153.726562 20.113281 -177.070312 20.5 -199.84375 C 20.875 -217.3125 23.054688 -230.503906 27.046875 -239.421875 C 31.035156 -248.335938 37.867188 -254.410156 47.546875 -257.640625 C 57.222656 -260.867188 70.410156 -262.289062 87.109375 -261.90625 C 95.085938 -261.90625 104.101562 -261.8125 114.15625 -261.625 C 124.21875 -261.4375 133.800781 -260.296875 142.90625 -258.203125 C 152.019531 -256.117188 159.328125 -252.226562 164.828125 -246.53125 C 170.335938 -240.84375 172.519531 -232.304688 171.375 -220.921875 C 171.757812 -218.265625 172.046875 -211.144531 172.234375 -199.5625 C 172.421875 -187.988281 172.703125 -174.226562 173.078125 -158.28125 C 173.460938 -142.34375 173.75 -126.398438 173.9375 -110.453125 C 174.132812 -94.515625 174.234375 -80.660156 174.234375 -68.890625 C 174.234375 -57.128906 174.234375 -49.726562 174.234375 -46.6875 C 173.472656 -29.226562 170.625 -16.507812 165.6875 -8.53125 C 160.75 -0.5625 151.066406 3.894531 136.640625 4.84375 C 122.222656 5.789062 100.585938 5.125 71.734375 2.84375 Z M 34.734375 -341.0625 C 34.734375 -357.375 42.320312 -372.742188 57.5 -387.171875 C 63.957031 -393.628906 71.359375 -398.566406 79.703125 -401.984375 C 88.054688 -405.398438 95.84375 -407.109375 103.0625 -407.109375 C 119.382812 -405.960938 133.238281 -399.125 144.625 -386.59375 C 156.007812 -374.070312 161.703125 -358.894531 161.703125 -341.0625 C 162.078125 -330.8125 160.460938 -321.695312 156.859375 -313.71875 C 153.253906 -305.75 148.414062 -298.539062 142.34375 -292.09375 C 129.4375 -279.5625 114.726562 -274.148438 98.21875 -275.859375 C 81.707031 -277.566406 67.1875 -284.875 54.65625 -297.78125 C 41.375 -311.070312 34.734375 -325.5 34.734375 -341.0625 Z M 34.734375 -341.0625 "/></g></g></g></g></g></svg>