<svg xmlns="http://www.w3.org/2000/svg" xmlns:xlink="http://www.w3.org/1999/xlink" width="1760" zoomAndPan="magnify" viewBox="0 510 1760 570" height="570" preserveAspectRatio="xMidYMid meet" version="1.0"><defs><g/><clipPath id="9190f749a5"><rect x="0" width="1462" y="0" height="935"/></clipPath></defs><g transform="matrix(1, 0, 0, 1, 7, 278)"><g clip-path="url(#9190f749a5)"><g fill="#161313" fill-opacity="1"><g transform="translate(0.667446, 759.342886)"><g><path d="M 400.984375 -446.96875 L 400.984375 0 L 300.734375 0 L 300.734375 -185.171875 L 132.8125 -185.171875 L 132.8125 0 L 33.203125 0 L 33.203125 -446.96875 L 132.8125 -446.96875 L 132.8125 -263.0625 L 300.734375 -263.0625 L 300.734375 -446.96875 Z M 400.984375 -446.96875 "/></g></g></g><g fill="#161313" fill-opacity="1"><g transform="translate(383.780878, 759.342886)"><g><path d="M 434.828125 -222.84375 C 434.828125 -186.65625 429.1875 -153.34375 417.90625 -122.90625 C 406.625 -92.476562 390.128906 -66.832031 368.421875 -45.96875 L 422.0625 26.171875 L 335.859375 26.171875 L 310.3125 -8.296875 C 285.625 1.066406 259.019531 5.75 230.5 5.75 C 185.800781 5.75 147.914062 -4.570312 116.84375 -25.21875 C 85.769531 -45.863281 62.460938 -73.53125 46.921875 -108.21875 C 31.390625 -142.914062 23.625 -181.335938 23.625 -223.484375 C 23.625 -265.617188 31.5 -304.351562 47.25 -339.6875 C 63 -375.019531 86.410156 -403.222656 117.484375 -424.296875 C 148.554688 -445.367188 186.226562 -455.90625 230.5 -455.90625 C 273.914062 -455.90625 311.054688 -445.472656 341.921875 -424.609375 C 372.785156 -403.753906 395.984375 -375.550781 411.515625 -340 C 427.054688 -304.457031 434.828125 -265.40625 434.828125 -222.84375 Z M 229.859375 -83 C 237.523438 -83 245.191406 -84.066406 252.859375 -86.203125 L 185.171875 -177.5 L 271.375 -177.5 L 307.125 -129.625 C 321.59375 -154.3125 328.828125 -185.8125 328.828125 -224.125 C 328.828125 -264.132812 320.3125 -297.972656 303.28125 -325.640625 C 286.257812 -353.304688 261.785156 -367.140625 229.859375 -367.140625 C 208.148438 -367.140625 189.738281 -360.539062 174.625 -347.34375 C 159.519531 -334.15625 148.242188 -316.707031 140.796875 -295 C 133.347656 -273.289062 129.625 -249.664062 129.625 -224.125 C 129.625 -184.53125 138.242188 -151.109375 155.484375 -123.859375 C 172.722656 -96.617188 197.515625 -83 229.859375 -83 Z M 229.859375 -83 "/></g></g></g><g fill="#161313" fill-opacity="1"><g transform="translate(791.158135, 759.342886)"><g><path d="M 107.265625 5.75 C 91.515625 5.75 78.53125 0.429688 68.3125 -10.203125 C 58.101562 -20.847656 53 -33.835938 53 -49.171875 C 53 -64.492188 58.101562 -77.367188 68.3125 -87.796875 C 78.53125 -98.222656 91.515625 -103.4375 107.265625 -103.4375 C 123.015625 -103.4375 136.101562 -98.222656 146.53125 -87.796875 C 156.96875 -77.367188 162.1875 -64.492188 162.1875 -49.171875 C 162.1875 -33.835938 156.863281 -20.847656 146.21875 -10.203125 C 135.570312 0.429688 122.585938 5.75 107.265625 5.75 Z M 107.265625 5.75 "/></g></g></g><g fill="#161313" fill-opacity="1"><g transform="translate(954.619863, 759.342886)"><g><path d="M 151.328125 5.75 C 109.609375 5.75 77.363281 -10.101562 54.59375 -41.8125 C 31.820312 -73.53125 20.4375 -115.992188 20.4375 -169.203125 C 20.4375 -222.835938 32.140625 -265.507812 55.546875 -297.21875 C 78.960938 -328.9375 111.316406 -344.796875 152.609375 -344.796875 C 181.128906 -344.796875 203.050781 -338.515625 218.375 -325.953125 C 233.695312 -313.398438 244.335938 -300.738281 250.296875 -287.96875 L 255.40625 -287.96875 L 255.40625 -337.78125 L 355.65625 -337.78125 L 355.65625 0 L 255.40625 0 L 255.40625 -54.28125 L 250.296875 -54.28125 C 243.910156 -40.65625 232.945312 -27.242188 217.40625 -14.046875 C 201.875 -0.847656 179.847656 5.75 151.328125 5.75 Z M 189 -74.0625 C 211.5625 -74.0625 228.375 -83.53125 239.4375 -102.46875 C 250.507812 -121.414062 256.046875 -143.875 256.046875 -169.84375 C 256.046875 -195.382812 250.507812 -217.625 239.4375 -236.5625 C 228.375 -255.507812 211.5625 -264.984375 189 -264.984375 C 165.582031 -264.984375 148.445312 -255.722656 137.59375 -237.203125 C 126.738281 -218.691406 121.3125 -196.453125 121.3125 -170.484375 C 121.3125 -144.085938 126.738281 -121.414062 137.59375 -102.46875 C 148.445312 -83.53125 165.582031 -74.0625 189 -74.0625 Z M 189 -74.0625 "/></g></g></g><g fill="#161313" fill-opacity="1"><g transform="translate(1296.867863, 759.342886)"><g><path d="M 44.703125 -337.78125 L 143.671875 -337.78125 L 143.671875 0 L 44.703125 0 Z M 93.859375 -393.96875 C 78.535156 -393.96875 65.765625 -399.179688 55.546875 -409.609375 C 45.328125 -420.035156 40.21875 -432.695312 40.21875 -447.59375 C 40.21875 -462.925781 45.328125 -475.804688 55.546875 -486.234375 C 65.765625 -496.660156 78.535156 -501.875 93.859375 -501.875 C 109.179688 -501.875 122.054688 -496.660156 132.484375 -486.234375 C 142.910156 -475.804688 148.125 -462.925781 148.125 -447.59375 C 148.125 -432.695312 142.910156 -420.035156 132.484375 -409.609375 C 122.054688 -399.179688 109.179688 -393.96875 93.859375 -393.96875 Z M 93.859375 -393.96875 "/></g></g></g></g></g></svg>