<svg xmlns="http://www.w3.org/2000/svg" xmlns:xlink="http://www.w3.org/1999/xlink" width="512" zoomAndPan="magnify" viewBox="0 0 384 383.999986" height="512" preserveAspectRatio="xMidYMid meet" version="1.0"><defs><g/><clipPath id="b7b1ccaba8"><rect x="0" width="223" y="0" height="210"/></clipPath><clipPath id="2a58190e14"><path d="M 0 0.71875 L 264.238281 0.71875 L 264.238281 219 L 0 219 Z M 0 0.71875 " clip-rule="nonzero"/></clipPath><clipPath id="a37925e23d"><rect x="0" width="265" y="0" height="219"/></clipPath><clipPath id="3f91a93fcb"><rect x="0" width="265" y="0" height="378"/></clipPath></defs><rect x="-38.4" width="460.8" fill="#ffffff" y="-38.399999" height="460.799983" fill-opacity="1"/><rect x="-38.4" width="460.8" fill="#ffffff" y="-38.399999" height="460.799983" fill-opacity="1"/><g transform="matrix(1, 0, 0, 1, 60, 6)"><g clip-path="url(#3f91a93fcb)"><g transform="matrix(1, 0, 0, 1, 9, 168)"><g clip-path="url(#b7b1ccaba8)"><g fill="#000000" fill-opacity="1"><g transform="translate(0.781488, 174.351943)"><g><path d="M 48.484375 0 C 47.617188 0 47.113281 -0.0703125 46.96875 -0.21875 C 45.507812 -0.21875 43.984375 -0.21875 42.390625 -0.21875 C 40.796875 -0.21875 39.203125 -0.289062 37.609375 -0.4375 C 33.117188 -0.4375 28.554688 -0.65625 23.921875 -1.09375 C 16.816406 -1.664062 12.066406 -3.289062 9.671875 -5.96875 C 7.285156 -8.65625 6.234375 -13.910156 6.515625 -21.734375 L 6.515625 -21.953125 C 7.242188 -27.460938 8.332031 -33.476562 9.78125 -40 C 11.226562 -46.53125 13.113281 -53.632812 15.4375 -61.3125 C 16.738281 -65.375 17.96875 -69.359375 19.125 -73.265625 C 20.289062 -77.179688 21.523438 -81.023438 22.828125 -84.796875 C 25.296875 -92.191406 27.722656 -99.617188 30.109375 -107.078125 C 32.503906 -114.546875 34.644531 -122.117188 36.53125 -129.796875 C 38.414062 -137.335938 41.566406 -142.664062 45.984375 -145.78125 C 50.398438 -148.894531 56.671875 -150.234375 64.796875 -149.796875 C 65.078125 -149.660156 66.519531 -149.519531 69.125 -149.375 C 71.738281 -149.226562 74.640625 -149.191406 77.828125 -149.265625 C 81.023438 -149.335938 83.492188 -149.585938 85.234375 -150.015625 C 92.617188 -151.753906 98.195312 -148.929688 101.96875 -141.546875 C 103.125 -139.222656 104.28125 -136.644531 105.4375 -133.8125 C 106.601562 -130.988281 107.691406 -128.347656 108.703125 -125.890625 C 112.910156 -112.703125 116.71875 -99.546875 120.125 -86.421875 C 123.53125 -73.304688 126.753906 -60.367188 129.796875 -47.609375 C 130.523438 -45.867188 131.210938 -43.984375 131.859375 -41.953125 C 132.515625 -39.929688 133.132812 -38.050781 133.71875 -36.3125 C 135.164062 -31.382812 136.429688 -27.429688 137.515625 -24.453125 C 138.609375 -21.484375 139.226562 -19.710938 139.375 -19.140625 C 140.09375 -16.523438 140.8125 -14.054688 141.53125 -11.734375 C 142.257812 -9.421875 142.441406 -7.285156 142.078125 -5.328125 C 141.722656 -3.367188 140.09375 -1.59375 137.1875 0 C 135.019531 1.007812 132.992188 1.1875 131.109375 0.53125 C 129.222656 -0.113281 127.628906 -0.941406 126.328125 -1.953125 C 124.441406 -3.253906 122.878906 -4.882812 121.640625 -6.84375 C 120.410156 -8.800781 119.21875 -11.160156 118.0625 -13.921875 C 117.914062 -14.640625 117.515625 -16.300781 116.859375 -18.90625 C 116.210938 -21.519531 115.453125 -24.382812 114.578125 -27.5 C 113.710938 -30.613281 112.914062 -33.472656 112.1875 -36.078125 C 111.46875 -38.691406 110.960938 -40.4375 110.671875 -41.3125 C 109.222656 -45.800781 106.722656 -48.953125 103.171875 -50.765625 C 99.617188 -52.578125 94.363281 -53.484375 87.40625 -53.484375 C 83.050781 -53.484375 80.078125 -52.648438 78.484375 -50.984375 C 76.890625 -49.316406 75.296875 -45.800781 73.703125 -40.4375 C 73.410156 -38.695312 73.007812 -36.921875 72.5 -35.109375 C 72 -33.296875 71.53125 -31.59375 71.09375 -30 C 70.519531 -27.394531 69.832031 -24.785156 69.03125 -22.171875 C 68.226562 -19.566406 67.46875 -16.957031 66.75 -14.34375 C 63.707031 -4.78125 57.617188 0 48.484375 0 Z M 85.234375 -82.84375 C 83.921875 -78.488281 84.644531 -75.367188 87.40625 -73.484375 C 90.007812 -70.878906 93.414062 -70.59375 97.625 -72.625 C 100.957031 -74.070312 102.1875 -76.96875 101.3125 -81.3125 C 101.03125 -83.488281 100.597656 -86.28125 100.015625 -89.6875 C 99.429688 -93.09375 98.703125 -96.207031 97.828125 -99.03125 C 96.960938 -101.863281 95.988281 -103.710938 94.90625 -104.578125 C 93.820312 -105.453125 92.695312 -104.507812 91.53125 -101.75 C 90.519531 -98.269531 89.503906 -94.972656 88.484375 -91.859375 C 87.472656 -88.742188 86.390625 -85.738281 85.234375 -82.84375 Z M 85.234375 -82.84375 "/></g></g></g><g fill="#000000" fill-opacity="1"><g transform="translate(149.496341, 174.351943)"><g><path d="M 27.390625 1.09375 C 22.023438 0.65625 17.859375 -0.101562 14.890625 -1.1875 C 11.921875 -2.28125 9.816406 -4.128906 8.578125 -6.734375 C 7.347656 -9.347656 6.660156 -13.046875 6.515625 -17.828125 L 6.515625 -21.09375 C 6.515625 -21.382812 6.515625 -21.707031 6.515625 -22.0625 C 6.515625 -22.425781 6.515625 -22.753906 6.515625 -23.046875 C 6.660156 -31.597656 6.878906 -40.4375 7.171875 -49.5625 C 7.460938 -58.695312 7.679688 -67.613281 7.828125 -76.3125 C 7.972656 -82.976562 8.804688 -88.015625 10.328125 -91.421875 C 11.847656 -94.828125 14.457031 -97.144531 18.15625 -98.375 C 21.851562 -99.613281 26.890625 -100.160156 33.265625 -100.015625 C 36.304688 -100.015625 39.75 -99.976562 43.59375 -99.90625 C 47.4375 -99.832031 51.097656 -99.394531 54.578125 -98.59375 C 58.054688 -97.800781 60.84375 -96.316406 62.9375 -94.140625 C 65.039062 -91.960938 65.875 -88.703125 65.4375 -84.359375 C 65.582031 -83.347656 65.691406 -80.628906 65.765625 -76.203125 C 65.835938 -71.785156 65.945312 -66.53125 66.09375 -60.4375 C 66.238281 -54.351562 66.347656 -48.265625 66.421875 -42.171875 C 66.492188 -36.085938 66.53125 -30.796875 66.53125 -26.296875 C 66.53125 -21.804688 66.53125 -18.984375 66.53125 -17.828125 C 66.238281 -11.160156 65.148438 -6.304688 63.265625 -3.265625 C 61.378906 -0.222656 57.679688 1.476562 52.171875 1.84375 C 46.671875 2.207031 38.410156 1.957031 27.390625 1.09375 Z M 13.265625 -130.234375 C 13.265625 -136.460938 16.160156 -142.332031 21.953125 -147.84375 C 24.421875 -150.3125 27.25 -152.195312 30.4375 -153.5 C 33.625 -154.800781 36.597656 -155.453125 39.359375 -155.453125 C 45.585938 -155.015625 50.875 -152.40625 55.21875 -147.625 C 59.570312 -142.84375 61.75 -137.046875 61.75 -130.234375 C 61.894531 -126.316406 61.273438 -122.835938 59.890625 -119.796875 C 58.515625 -116.753906 56.671875 -114 54.359375 -111.53125 C 49.429688 -106.75 43.8125 -104.679688 37.5 -105.328125 C 31.195312 -105.984375 25.65625 -108.78125 20.875 -113.71875 C 15.800781 -118.789062 13.265625 -124.296875 13.265625 -130.234375 Z M 13.265625 -130.234375 "/></g></g></g></g></g><g clip-path="url(#2a58190e14)"><g><g clip-path="url(#a37925e23d)"><g fill="#000000" fill-opacity="1"><g transform="translate(0.131072, 174.960222)"><g><path d="M 26.75 1.09375 C 21.09375 0.65625 16.8125 -0.175781 13.90625 -1.40625 C 11.007812 -2.644531 9.050781 -4.785156 8.03125 -7.828125 C 7.019531 -10.867188 6.515625 -15.289062 6.515625 -21.09375 C 6.804688 -29.644531 6.878906 -38.269531 6.734375 -46.96875 C 6.585938 -55.664062 6.515625 -64.21875 6.515625 -72.625 C 6.660156 -81.175781 6.769531 -90.015625 6.84375 -99.140625 C 6.914062 -108.273438 7.023438 -117.191406 7.171875 -125.890625 C 7.316406 -132.554688 8.148438 -137.484375 9.671875 -140.671875 C 11.191406 -143.859375 13.800781 -145.957031 17.5 -146.96875 C 21.195312 -147.988281 26.234375 -148.425781 32.609375 -148.28125 C 35.648438 -148.28125 39.019531 -148.316406 42.71875 -148.390625 C 46.414062 -148.460938 49.894531 -148.171875 53.15625 -147.515625 C 56.414062 -146.867188 59.023438 -145.53125 60.984375 -143.5 C 62.941406 -141.46875 63.703125 -138.28125 63.265625 -133.9375 C 63.992188 -124.800781 64.71875 -115.628906 65.4375 -106.421875 C 66.164062 -97.222656 66.675781 -88.054688 66.96875 -78.921875 C 67.113281 -76.171875 68.128906 -73.890625 70.015625 -72.078125 C 71.898438 -70.265625 74.21875 -69.359375 76.96875 -69.359375 C 79.570312 -69.359375 82.25 -69.359375 85 -69.359375 C 87.757812 -69.359375 90.445312 -69.285156 93.0625 -69.140625 C 95.957031 -69.140625 98.3125 -69.753906 100.125 -70.984375 C 101.9375 -72.222656 102.914062 -73.78125 103.0625 -75.65625 C 103.0625 -76.820312 103.097656 -77.945312 103.171875 -79.03125 C 103.242188 -80.113281 103.28125 -81.164062 103.28125 -82.1875 L 103.5 -84.578125 L 103.921875 -117.40625 C 103.773438 -125.519531 103.773438 -131.820312 103.921875 -136.3125 C 104.066406 -140.8125 104.863281 -143.929688 106.3125 -145.671875 C 107.769531 -147.410156 110.453125 -148.28125 114.359375 -148.28125 C 117.984375 -148.28125 120.484375 -147.628906 121.859375 -146.328125 C 123.242188 -145.023438 124.078125 -142.882812 124.359375 -139.90625 C 124.648438 -136.9375 124.867188 -132.914062 125.015625 -127.84375 C 125.304688 -122.476562 125.523438 -116.0625 125.671875 -108.59375 C 125.816406 -101.132812 125.890625 -93.707031 125.890625 -86.3125 C 125.890625 -78.925781 125.742188 -72.476562 125.453125 -66.96875 L 125.234375 -64.578125 C 125.234375 -63.410156 125.269531 -62.175781 125.34375 -60.875 C 125.414062 -59.570312 125.453125 -58.195312 125.453125 -56.75 C 125.742188 -44.132812 125.851562 -34.09375 125.78125 -26.625 C 125.707031 -19.164062 125.34375 -13.585938 124.6875 -9.890625 C 124.039062 -6.191406 122.882812 -3.765625 121.21875 -2.609375 C 119.550781 -1.453125 117.265625 -0.875 114.359375 -0.875 C 110.878906 -0.875 108.414062 -1.523438 106.96875 -2.828125 C 105.519531 -4.128906 104.6875 -6.300781 104.46875 -9.34375 C 104.25 -12.394531 103.992188 -16.382812 103.703125 -21.3125 L 103.0625 -37.390625 C 102.914062 -40.296875 102.148438 -42.722656 100.765625 -44.671875 C 99.390625 -46.628906 97.691406 -47.535156 95.671875 -47.390625 C 93.054688 -47.253906 90.15625 -47.148438 86.96875 -47.078125 C 83.78125 -47.003906 80.300781 -46.96875 76.53125 -46.96875 C 73.78125 -46.96875 71.5 -46.203125 69.6875 -44.671875 C 67.875 -43.148438 66.894531 -41.234375 66.75 -38.921875 C 66.894531 -28.921875 66.820312 -21.019531 66.53125 -15.21875 C 66.238281 -9.414062 64.96875 -5.210938 62.71875 -2.609375 C 60.476562 -0.00390625 56.566406 1.476562 50.984375 1.84375 C 45.398438 2.207031 37.320312 1.957031 26.75 1.09375 Z M 26.75 1.09375 "/></g></g></g><g fill="#000000" fill-opacity="1"><g transform="translate(132.539489, 174.960222)"><g><path d="M 67.625 0.875 C 61.238281 0.4375 54.710938 -0.503906 48.046875 -1.953125 C 41.378906 -3.398438 35.109375 -5.753906 29.234375 -9.015625 C 23.367188 -12.285156 18.550781 -16.816406 14.78125 -22.609375 C 11.007812 -28.410156 8.910156 -35.875 8.484375 -45 C 8.046875 -53.125 7.535156 -60.554688 6.953125 -67.296875 C 6.378906 -74.035156 6.453125 -81.390625 7.171875 -89.359375 C 9.785156 -114.429688 17.503906 -131.601562 30.328125 -140.875 C 43.160156 -150.15625 62.039062 -153.128906 86.96875 -149.796875 C 94.070312 -148.929688 100.628906 -146.429688 106.640625 -142.296875 C 112.660156 -138.171875 116.828125 -132.921875 119.140625 -126.546875 C 121.171875 -121.035156 122.582031 -114.144531 123.375 -105.875 C 124.175781 -97.613281 124.613281 -89.0625 124.6875 -80.21875 C 124.757812 -71.382812 124.722656 -63.269531 124.578125 -55.875 C 124.578125 -52.101562 124.359375 -47.789062 123.921875 -42.9375 C 123.492188 -38.082031 122.695312 -33.265625 121.53125 -28.484375 C 120.375 -23.703125 118.707031 -19.351562 116.53125 -15.4375 C 116.394531 -15.289062 116.394531 -15.070312 116.53125 -14.78125 C 118.5625 -10.4375 119.898438 -6.050781 120.546875 -1.625 C 121.203125 2.789062 120.082031 5.796875 117.1875 7.390625 C 112.988281 9.859375 109.875 10.257812 107.84375 8.59375 C 105.8125 6.925781 103.128906 3.410156 99.796875 -1.953125 C 99.648438 -2.390625 99.210938 -2.460938 98.484375 -2.171875 C 93.410156 -0.722656 87.9375 0.210938 82.0625 0.640625 C 76.195312 1.078125 71.382812 1.15625 67.625 0.875 Z M 65.015625 -76.53125 C 64.578125 -71.164062 64.46875 -65.835938 64.6875 -60.546875 C 64.90625 -55.253906 65.15625 -49.859375 65.4375 -44.359375 C 65.4375 -40.585938 65.832031 -36.453125 66.625 -31.953125 C 67.425781 -27.460938 68.988281 -23.585938 71.3125 -20.328125 C 73.632812 -17.066406 77.113281 -15.4375 81.75 -15.4375 C 83.195312 -15.4375 84.535156 -15.472656 85.765625 -15.546875 C 87.003906 -15.617188 88.128906 -15.726562 89.140625 -15.875 C 90.015625 -16.164062 90.234375 -16.671875 89.796875 -17.390625 C 87.617188 -20.722656 85.515625 -24.054688 83.484375 -27.390625 C 81.460938 -30.722656 79.070312 -34.710938 76.3125 -39.359375 C 75.445312 -41.097656 74.648438 -43.160156 73.921875 -45.546875 C 73.203125 -47.941406 73.09375 -50.296875 73.59375 -52.609375 C 74.101562 -54.929688 75.585938 -56.671875 78.046875 -57.828125 C 79.210938 -58.410156 80.804688 -58.703125 82.828125 -58.703125 C 84.859375 -58.703125 87.359375 -57.46875 90.328125 -55 C 93.304688 -52.539062 96.753906 -47.90625 100.671875 -41.09375 C 101.242188 -40.363281 101.710938 -39.523438 102.078125 -38.578125 C 102.441406 -37.640625 102.84375 -36.738281 103.28125 -35.875 C 103.5625 -35.289062 103.992188 -35.035156 104.578125 -35.109375 C 105.160156 -35.179688 105.523438 -35.507812 105.671875 -36.09375 C 107.691406 -44.351562 108.992188 -55.222656 109.578125 -68.703125 C 110.160156 -82.179688 108.566406 -97.398438 104.796875 -114.359375 C 103.492188 -120.160156 101.644531 -124.617188 99.25 -127.734375 C 96.863281 -130.847656 93.785156 -132.332031 90.015625 -132.1875 C 85.085938 -132.625 81.023438 -131.863281 77.828125 -129.90625 C 74.640625 -127.945312 72.175781 -125.410156 70.4375 -122.296875 C 68.695312 -119.179688 67.539062 -116.101562 66.96875 -113.0625 C 65.945312 -100.445312 65.296875 -88.269531 65.015625 -76.53125 Z M 65.015625 -76.53125 "/></g></g></g></g></g></g></g></g></svg>